<svg width="32" height="32" viewBox="0 0 32 32" fill="none" xmlns="http://www.w3.org/2000/svg">
<path d="M24 6.66666H25.3333V7.99999C25.3333 8.35361 25.4738 8.69275 25.7239 8.9428C25.9739 9.19285 26.3131 9.33332 26.6667 9.33332C27.0203 9.33332 27.3594 9.19285 27.6095 8.9428C27.8595 8.69275 28 8.35361 28 7.99999V6.66666H29.3333C29.687 6.66666 30.0261 6.52618 30.2762 6.27613C30.5262 6.02608 30.6667 5.68694 30.6667 5.33332C30.6667 4.9797 30.5262 4.64056 30.2762 4.39051C30.0261 4.14047 29.687 3.99999 29.3333 3.99999H28V2.66666C28 2.31303 27.8595 1.9739 27.6095 1.72385C27.3594 1.4738 27.0203 1.33332 26.6667 1.33332C26.3131 1.33332 25.9739 1.4738 25.7239 1.72385C25.4738 1.9739 25.3333 2.31303 25.3333 2.66666V3.99999H24C23.6464 3.99999 23.3073 4.14047 23.0572 4.39051C22.8072 4.64056 22.6667 4.9797 22.6667 5.33332C22.6667 5.68694 22.8072 6.02608 23.0572 6.27613C23.3073 6.52618 23.6464 6.66666 24 6.66666ZM9.33335 9.33332V22.6667C9.33335 23.0203 9.47383 23.3594 9.72387 23.6095C9.97392 23.8595 10.3131 24 10.6667 24C11.0203 24 11.3594 23.8595 11.6095 23.6095C11.8595 23.3594 12 23.0203 12 22.6667V9.33332C12 8.9797 11.8595 8.64056 11.6095 8.39051C11.3594 8.14046 11.0203 7.99999 10.6667 7.99999C10.3131 7.99999 9.97392 8.14046 9.72387 8.39051C9.47383 8.64056 9.33335 8.9797 9.33335 9.33332ZM28.8 12C28.6284 12.035 28.4654 12.1034 28.3202 12.2014C28.1751 12.2995 28.0507 12.4251 27.9541 12.5712C27.8575 12.7173 27.7907 12.881 27.7574 13.053C27.7241 13.2249 27.725 13.4017 27.76 13.5733C28.2806 16.1016 27.9721 18.7303 26.8802 21.0694C25.7883 23.4084 23.9713 25.3329 21.6989 26.5574C19.4264 27.7819 16.8198 28.2409 14.2658 27.8665C11.7118 27.492 9.34657 26.304 7.5213 24.4787C5.69604 22.6534 4.508 20.2883 4.13353 17.7342C3.75906 15.1802 4.21813 12.5736 5.44259 10.3011C6.66705 8.02873 8.59163 6.21172 10.9306 5.11984C13.2697 4.02795 15.8984 3.7194 18.4267 4.23999C18.7803 4.31071 19.1475 4.23807 19.4476 4.03803C19.7477 3.83799 19.956 3.52694 20.0267 3.17332C20.0974 2.8197 20.0248 2.45247 19.8247 2.15241C19.6247 1.85235 19.3136 1.64405 18.96 1.57332C17.9843 1.39152 16.9923 1.3111 16 1.33332C13.0992 1.33332 10.2636 2.19351 7.85165 3.8051C5.43973 5.4167 3.55987 7.70732 2.44978 10.3873C1.3397 13.0673 1.04925 16.0163 1.61517 18.8613C2.18108 21.7064 3.57795 24.3197 5.62912 26.3709C7.68029 28.4221 10.2936 29.8189 13.1387 30.3848C15.9837 30.9508 18.9327 30.6603 21.6127 29.5502C24.2927 28.4401 26.5833 26.5603 28.1949 24.1484C29.8065 21.7364 30.6667 18.9008 30.6667 16C30.6695 15.0148 30.5712 14.0318 30.3734 13.0667C30.3414 12.8926 30.2752 12.7267 30.1785 12.5786C30.0818 12.4304 29.9566 12.303 29.8101 12.2037C29.6637 12.1045 29.499 12.0353 29.3256 12.0003C29.1521 11.9654 28.9735 11.9652 28.8 12ZM14.6667 12V13.3333C14.6726 14.3201 15.043 15.2698 15.7067 16C15.043 16.7302 14.6726 17.6799 14.6667 18.6667V20C14.6667 21.0609 15.0881 22.0783 15.8383 22.8284C16.5884 23.5786 17.6058 24 18.6667 24H20C21.0609 24 22.0783 23.5786 22.8284 22.8284C23.5786 22.0783 24 21.0609 24 20V18.6667C23.9941 17.6799 23.6237 16.7302 22.96 16C23.6237 15.2698 23.9941 14.3201 24 13.3333V12C24 10.9391 23.5786 9.92171 22.8284 9.17156C22.0783 8.42142 21.0609 7.99999 20 7.99999H18.6667C17.6058 7.99999 16.5884 8.42142 15.8383 9.17156C15.0881 9.92171 14.6667 10.9391 14.6667 12ZM21.3333 20C21.3333 20.3536 21.1929 20.6927 20.9428 20.9428C20.6928 21.1928 20.3536 21.3333 20 21.3333H18.6667C18.3131 21.3333 17.9739 21.1928 17.7239 20.9428C17.4738 20.6927 17.3333 20.3536 17.3333 20V18.6667C17.3333 18.313 17.4738 17.9739 17.7239 17.7238C17.9739 17.4738 18.3131 17.3333 18.6667 17.3333H20C20.3536 17.3333 20.6928 17.4738 20.9428 17.7238C21.1929 17.9739 21.3333 18.313 21.3333 18.6667V20ZM21.3333 12V13.3333C21.3333 13.6869 21.1929 14.0261 20.9428 14.2761C20.6928 14.5262 20.3536 14.6667 20 14.6667H18.6667C18.3131 14.6667 17.9739 14.5262 17.7239 14.2761C17.4738 14.0261 17.3333 13.6869 17.3333 13.3333V12C17.3333 11.6464 17.4738 11.3072 17.7239 11.0572C17.9739 10.8071 18.3131 10.6667 18.6667 10.6667H20C20.3536 10.6667 20.6928 10.8071 20.9428 11.0572C21.1929 11.3072 21.3333 11.6464 21.3333 12Z" fill="#C34E47"/>
</svg>
