<svg width="16" height="16" viewBox="0 0 16 16" fill="none" xmlns="http://www.w3.org/2000/svg">
<path d="M2.66666 7.81716C2.66666 7.56403 2.85476 7.35483 3.09881 7.32172L3.16666 7.31716L11.956 7.31756L8.78067 4.1552C8.58498 3.96036 8.5843 3.64378 8.77914 3.4481C8.95627 3.27021 9.23401 3.25347 9.43006 3.39829L9.48625 3.44658L13.5196 7.46258C13.5454 7.48826 13.5678 7.51606 13.5868 7.54541C13.5922 7.55424 13.5976 7.56328 13.6028 7.5725C13.6076 7.58041 13.6119 7.58862 13.616 7.59691C13.6216 7.60899 13.6271 7.62146 13.6321 7.63419C13.6362 7.644 13.6396 7.65354 13.6427 7.66316C13.6464 7.67509 13.6499 7.6878 13.653 7.70071C13.6553 7.70972 13.6571 7.71839 13.6587 7.7271C13.6609 7.74005 13.6628 7.75346 13.6642 7.76702C13.6653 7.77737 13.666 7.78762 13.6664 7.79788C13.6665 7.8041 13.6667 7.81061 13.6667 7.81716L13.6664 7.83653C13.666 7.84634 13.6654 7.85614 13.6644 7.86593L13.6667 7.81716C13.6667 7.84871 13.6637 7.87958 13.6581 7.90951C13.6568 7.91666 13.6553 7.924 13.6536 7.93131C13.65 7.94636 13.6459 7.96085 13.6412 7.97506C13.6389 7.98212 13.6362 7.98967 13.6333 7.99715C13.6275 8.0122 13.6211 8.02654 13.6141 8.04051C13.6109 8.04708 13.6072 8.05396 13.6034 8.06076C13.5972 8.07187 13.5907 8.08242 13.5839 8.09271C13.5791 8.09999 13.5738 8.10757 13.5683 8.11503L13.5639 8.12079C13.5505 8.13839 13.5359 8.15507 13.5202 8.17071L13.5196 8.17118L9.48628 12.1878C9.29061 12.3827 8.97403 12.382 8.77917 12.1864C8.60203 12.0085 8.58647 11.7307 8.73211 11.5353L8.78064 11.4793L11.9547 8.31756L3.16666 8.31716C2.89051 8.31716 2.66666 8.0933 2.66666 7.81716Z" fill="#FAFAFA"/>
</svg>
