<svg width="58" height="58" viewBox="0 0 58 58" fill="none" xmlns="http://www.w3.org/2000/svg">
<path d="M5.92 16.61C6.1519 16.61 6.34 16.422 6.34 16.19C6.34 15.9581 6.1519 15.77 5.92 15.77C5.688 15.77 5.5 15.9581 5.5 16.19C5.5 16.422 5.688 16.61 5.92 16.61Z" fill="url(#paint0_linear_6:1052)"/>
<path d="M15.22 16.5402C15.452 16.5402 15.64 16.3522 15.64 16.1202C15.64 15.8882 15.452 15.7002 15.22 15.7002C14.9881 15.7002 14.8 15.8882 14.8 16.1202C14.8 16.3522 14.9881 16.5402 15.22 16.5402Z" fill="url(#paint1_linear_6:1052)"/>
<path d="M10.5701 19.2802C10.8021 19.2802 10.9901 19.0921 10.9901 18.8602C10.9901 18.6282 10.8021 18.4402 10.5701 18.4402C10.3382 18.4402 10.1501 18.6282 10.1501 18.8602C10.1501 19.0921 10.3382 19.2802 10.5701 19.2802Z" fill="url(#paint2_linear_6:1052)"/>
<path d="M5.92 22.0302C6.1519 22.0302 6.34 21.8421 6.34 21.6102C6.34 21.3782 6.1519 21.1902 5.92 21.1902C5.688 21.1902 5.5 21.3782 5.5 21.6102C5.5 21.8421 5.688 22.0302 5.92 22.0302Z" fill="url(#paint3_linear_6:1052)"/>
<path d="M29.17 14.1602C29.6505 14.1602 30.04 13.7706 30.04 13.2902C30.04 12.8097 29.6505 12.4202 29.17 12.4202C28.6896 12.4202 28.3 12.8097 28.3 13.2902C28.3 13.7706 28.6896 14.1602 29.17 14.1602Z" fill="url(#paint4_linear_6:1052)"/>
<path d="M24.5201 16.9102C25.0006 16.9102 25.3901 16.5206 25.3901 16.0402C25.3901 15.5597 25.0006 15.1702 24.5201 15.1702C24.0397 15.1702 23.6501 15.5597 23.6501 16.0402C23.6501 16.5206 24.0397 16.9102 24.5201 16.9102Z" fill="url(#paint5_linear_6:1052)"/>
<path d="M19.87 19.6602C20.3505 19.6602 20.74 19.2706 20.74 18.7902C20.74 18.3097 20.3505 17.9202 19.87 17.9202C19.3895 17.9202 19 18.3097 19 18.7902C19 19.2706 19.3895 19.6602 19.87 19.6602Z" fill="url(#paint6_linear_6:1052)"/>
<path d="M15.2201 22.4102C15.7006 22.4102 16.0901 22.0206 16.0901 21.5402C16.0901 21.0597 15.7006 20.6702 15.2201 20.6702C14.7396 20.6702 14.3501 21.0597 14.3501 21.5402C14.3501 22.0206 14.7396 22.4102 15.2201 22.4102Z" fill="url(#paint7_linear_6:1052)"/>
<path d="M10.5702 25.1502C11.0507 25.1502 11.4402 24.7606 11.4402 24.2802C11.4402 23.7997 11.0507 23.4102 10.5702 23.4102C10.0897 23.4102 9.7002 23.7997 9.7002 24.2802C9.7002 24.7606 10.0897 25.1502 10.5702 25.1502Z" fill="url(#paint8_linear_6:1052)"/>
<path d="M5.92 27.4501C6.1519 27.4501 6.34 27.2621 6.34 27.0301C6.34 26.7981 6.1519 26.6101 5.92 26.6101C5.688 26.6101 5.5 26.7981 5.5 27.0301C5.5 27.2621 5.688 27.4501 5.92 27.4501Z" fill="url(#paint9_linear_6:1052)"/>
<path d="M29.1702 20.4502C30.1311 20.4502 30.9102 19.6712 30.9102 18.7102C30.9102 17.7492 30.1311 16.9702 29.1702 16.9702C28.2092 16.9702 27.4302 17.7492 27.4302 18.7102C27.4302 19.6712 28.2092 20.4502 29.1702 20.4502Z" fill="url(#paint10_linear_6:1052)"/>
<path d="M24.5203 23.2002C25.4812 23.2002 26.2603 22.4212 26.2603 21.4602C26.2603 20.4992 25.4812 19.7202 24.5203 19.7202C23.5593 19.7202 22.7803 20.4992 22.7803 21.4602C22.7803 22.4212 23.5593 23.2002 24.5203 23.2002Z" fill="url(#paint11_linear_6:1052)"/>
<path d="M19.8701 25.9502C20.8311 25.9502 21.6101 25.1712 21.6101 24.2102C21.6101 23.2492 20.8311 22.4702 19.8701 22.4702C18.9092 22.4702 18.1301 23.2492 18.1301 24.2102C18.1301 25.1712 18.9092 25.9502 19.8701 25.9502Z" fill="url(#paint12_linear_6:1052)"/>
<path d="M15.22 28.6902C16.1809 28.6902 16.96 27.9112 16.96 26.9502C16.96 25.9892 16.1809 25.2102 15.22 25.2102C14.259 25.2102 13.48 25.9892 13.48 26.9502C13.48 27.9112 14.259 28.6902 15.22 28.6902Z" fill="url(#paint13_linear_6:1052)"/>
<path d="M10.5702 30.5701C11.0507 30.5701 11.4402 30.1806 11.4402 29.7001C11.4402 29.2196 11.0507 28.8301 10.5702 28.8301C10.0897 28.8301 9.7002 29.2196 9.7002 29.7001C9.7002 30.1806 10.0897 30.5701 10.5702 30.5701Z" fill="url(#paint14_linear_6:1052)"/>
<path d="M5.92 32.87C6.1519 32.87 6.34 32.682 6.34 32.45C6.34 32.2181 6.1519 32.03 5.92 32.03C5.688 32.03 5.5 32.2181 5.5 32.45C5.5 32.682 5.688 32.87 5.92 32.87Z" fill="url(#paint15_linear_6:1052)"/>
<path d="M29.1702 25.8701C30.1311 25.8701 30.9102 25.0911 30.9102 24.1301C30.9102 23.1692 30.1311 22.3901 29.1702 22.3901C28.2092 22.3901 27.4302 23.1692 27.4302 24.1301C27.4302 25.0911 28.2092 25.8701 29.1702 25.8701Z" fill="url(#paint16_linear_6:1052)"/>
<path d="M24.5203 28.6201C25.4812 28.6201 26.2603 27.8411 26.2603 26.8801C26.2603 25.9192 25.4812 25.1401 24.5203 25.1401C23.5593 25.1401 22.7803 25.9192 22.7803 26.8801C22.7803 27.8411 23.5593 28.6201 24.5203 28.6201Z" fill="url(#paint17_linear_6:1052)"/>
<path d="M19.8701 31.3601C20.8311 31.3601 21.6101 30.5811 21.6101 29.6201C21.6101 28.6592 20.8311 27.8801 19.8701 27.8801C18.9092 27.8801 18.1301 28.6592 18.1301 29.6201C18.1301 30.5811 18.9092 31.3601 19.8701 31.3601Z" fill="url(#paint18_linear_6:1052)"/>
<path d="M15.22 34.1101C16.1809 34.1101 16.96 33.3311 16.96 32.3701C16.96 31.4092 16.1809 30.6301 15.22 30.6301C14.259 30.6301 13.48 31.4092 13.48 32.3701C13.48 33.3311 14.259 34.1101 15.22 34.1101Z" fill="url(#paint19_linear_6:1052)"/>
<path d="M10.5702 35.99C11.0507 35.99 11.4402 35.6005 11.4402 35.12C11.4402 34.6395 11.0507 34.25 10.5702 34.25C10.0897 34.25 9.7002 34.6395 9.7002 35.12C9.7002 35.6005 10.0897 35.99 10.5702 35.99Z" fill="url(#paint20_linear_6:1052)"/>
<path d="M5.92 38.2902C6.1519 38.2902 6.34 38.1022 6.34 37.8702C6.34 37.6382 6.1519 37.4502 5.92 37.4502C5.688 37.4502 5.5 37.6382 5.5 37.8702C5.5 38.1022 5.688 38.2902 5.92 38.2902Z" fill="url(#paint21_linear_6:1052)"/>
<path d="M29.17 30.4202C29.6505 30.4202 30.04 30.0307 30.04 29.5502C30.04 29.0697 29.6505 28.6802 29.17 28.6802C28.6896 28.6802 28.3 29.0697 28.3 29.5502C28.3 30.0307 28.6896 30.4202 29.17 30.4202Z" fill="url(#paint22_linear_6:1052)"/>
<path d="M24.5201 33.1602C25.0006 33.1602 25.3901 32.7706 25.3901 32.2902C25.3901 31.8097 25.0006 31.4202 24.5201 31.4202C24.0397 31.4202 23.6501 31.8097 23.6501 32.2902C23.6501 32.7706 24.0397 33.1602 24.5201 33.1602Z" fill="url(#paint23_linear_6:1052)"/>
<path d="M19.87 35.9102C20.3505 35.9102 20.74 35.5206 20.74 35.0402C20.74 34.5597 20.3505 34.1702 19.87 34.1702C19.3895 34.1702 19 34.5597 19 35.0402C19 35.5206 19.3895 35.9102 19.87 35.9102Z" fill="url(#paint24_linear_6:1052)"/>
<path d="M15.2201 38.6602C15.7006 38.6602 16.0901 38.2706 16.0901 37.7902C16.0901 37.3097 15.7006 36.9202 15.2201 36.9202C14.7396 36.9202 14.3501 37.3097 14.3501 37.7902C14.3501 38.2706 14.7396 38.6602 15.2201 38.6602Z" fill="url(#paint25_linear_6:1052)"/>
<path d="M10.5701 40.9601C10.8021 40.9601 10.9901 40.7721 10.9901 40.5401C10.9901 40.3082 10.8021 40.1201 10.5701 40.1201C10.3382 40.1201 10.1501 40.3082 10.1501 40.5401C10.1501 40.7721 10.3382 40.9601 10.5701 40.9601Z" fill="url(#paint26_linear_6:1052)"/>
<path d="M5.92 43.7101C6.1519 43.7101 6.34 43.5221 6.34 43.2901C6.34 43.0582 6.1519 42.8701 5.92 42.8701C5.688 42.8701 5.5 43.0582 5.5 43.2901C5.5 43.5221 5.688 43.7101 5.92 43.7101Z" fill="url(#paint27_linear_6:1052)"/>
<path d="M29.17 35.38C29.4019 35.38 29.59 35.192 29.59 34.96C29.59 34.7281 29.4019 34.54 29.17 34.54C28.938 34.54 28.75 34.7281 28.75 34.96C28.75 35.192 28.938 35.38 29.17 35.38Z" fill="url(#paint28_linear_6:1052)"/>
<path d="M24.5201 38.13C24.7521 38.13 24.9401 37.942 24.9401 37.71C24.9401 37.4781 24.7521 37.29 24.5201 37.29C24.2882 37.29 24.1001 37.4781 24.1001 37.71C24.1001 37.942 24.2882 38.13 24.5201 38.13Z" fill="url(#paint29_linear_6:1052)"/>
<path d="M19.8702 40.88C20.1022 40.88 20.2902 40.692 20.2902 40.46C20.2902 40.2281 20.1022 40.04 19.8702 40.04C19.6382 40.04 19.4502 40.2281 19.4502 40.46C19.4502 40.692 19.6382 40.88 19.8702 40.88Z" fill="url(#paint30_linear_6:1052)"/>
<path d="M15.22 43.63C15.452 43.63 15.64 43.442 15.64 43.21C15.64 42.9781 15.452 42.79 15.22 42.79C14.9881 42.79 14.8 42.9781 14.8 43.21C14.8 43.442 14.9881 43.63 15.22 43.63Z" fill="url(#paint31_linear_6:1052)"/>
<path d="M10.5701 46.38C10.8021 46.38 10.9901 46.192 10.9901 45.96C10.9901 45.7281 10.8021 45.54 10.5701 45.54C10.3382 45.54 10.1501 45.7281 10.1501 45.96C10.1501 46.192 10.3382 46.38 10.5701 46.38Z" fill="url(#paint32_linear_6:1052)"/>
<path d="M29.17 40.8002C29.4019 40.8002 29.59 40.6122 29.59 40.3802C29.59 40.1482 29.4019 39.9602 29.17 39.9602C28.938 39.9602 28.75 40.1482 28.75 40.3802C28.75 40.6122 28.938 40.8002 29.17 40.8002Z" fill="url(#paint33_linear_6:1052)"/>
<path d="M24.5201 43.5502C24.7521 43.5502 24.9401 43.3622 24.9401 43.1302C24.9401 42.8982 24.7521 42.7102 24.5201 42.7102C24.2882 42.7102 24.1001 42.8982 24.1001 43.1302C24.1001 43.3622 24.2882 43.5502 24.5201 43.5502Z" fill="url(#paint34_linear_6:1052)"/>
<path d="M19.8702 46.3002C20.1022 46.3002 20.2902 46.1122 20.2902 45.8802C20.2902 45.6482 20.1022 45.4602 19.8702 45.4602C19.6382 45.4602 19.4502 45.6482 19.4502 45.8802C19.4502 46.1122 19.6382 46.3002 19.8702 46.3002Z" fill="url(#paint35_linear_6:1052)"/>
<path d="M15.22 49.0502C15.452 49.0502 15.64 48.8622 15.64 48.6302C15.64 48.3982 15.452 48.2102 15.22 48.2102C14.9881 48.2102 14.8 48.3982 14.8 48.6302C14.8 48.8622 14.9881 49.0502 15.22 49.0502Z" fill="url(#paint36_linear_6:1052)"/>
<path d="M29.17 46.2201C29.4019 46.2201 29.59 46.0321 29.59 45.8001C29.59 45.5682 29.4019 45.3801 29.17 45.3801C28.938 45.3801 28.75 45.5682 28.75 45.8001C28.75 46.0321 28.938 46.2201 29.17 46.2201Z" fill="url(#paint37_linear_6:1052)"/>
<path d="M24.5201 48.9701C24.7521 48.9701 24.9401 48.7821 24.9401 48.5501C24.9401 48.3182 24.7521 48.1301 24.5201 48.1301C24.2882 48.1301 24.1001 48.3182 24.1001 48.5501C24.1001 48.7821 24.2882 48.9701 24.5201 48.9701Z" fill="url(#paint38_linear_6:1052)"/>
<path d="M19.8702 51.7201C20.1022 51.7201 20.2902 51.5321 20.2902 51.3001C20.2902 51.0682 20.1022 50.8801 19.8702 50.8801C19.6382 50.8801 19.4502 51.0682 19.4502 51.3001C19.4502 51.5321 19.6382 51.7201 19.8702 51.7201Z" fill="url(#paint39_linear_6:1052)"/>
<path d="M29.17 51.64C29.4019 51.64 29.59 51.452 29.59 51.22C29.59 50.9881 29.4019 50.8 29.17 50.8C28.938 50.8 28.75 50.9881 28.75 51.22C28.75 51.452 28.938 51.64 29.17 51.64Z" fill="url(#paint40_linear_6:1052)"/>
<path d="M24.5201 54.39C24.7521 54.39 24.9401 54.202 24.9401 53.97C24.9401 53.7381 24.7521 53.55 24.5201 53.55C24.2882 53.55 24.1001 53.7381 24.1001 53.97C24.1001 54.202 24.2882 54.39 24.5201 54.39Z" fill="url(#paint41_linear_6:1052)"/>
<path d="M29.17 57.0602C29.4019 57.0602 29.59 56.8722 29.59 56.6402C29.59 56.4083 29.4019 56.2202 29.17 56.2202C28.938 56.2202 28.75 56.4083 28.75 56.6402C28.75 56.8722 28.938 57.0602 29.17 57.0602Z" fill="url(#paint42_linear_6:1052)"/>
<path d="M52.36 16.61C52.5919 16.61 52.78 16.422 52.78 16.19C52.78 15.9581 52.5919 15.77 52.36 15.77C52.128 15.77 51.9399 15.9581 51.9399 16.19C51.9399 16.422 52.128 16.61 52.36 16.61Z" fill="url(#paint43_linear_6:1052)"/>
<path d="M43.0501 16.5402C43.2821 16.5402 43.4701 16.3522 43.4701 16.1202C43.4701 15.8882 43.2821 15.7002 43.0501 15.7002C42.8182 15.7002 42.6301 15.8882 42.6301 16.1202C42.6301 16.3522 42.8182 16.5402 43.0501 16.5402Z" fill="url(#paint44_linear_6:1052)"/>
<path d="M47.7101 19.2802C47.942 19.2802 48.13 19.0921 48.13 18.8602C48.13 18.6282 47.942 18.4402 47.7101 18.4402C47.4781 18.4402 47.29 18.6282 47.29 18.8602C47.29 19.0921 47.4781 19.2802 47.7101 19.2802Z" fill="url(#paint45_linear_6:1052)"/>
<path d="M52.36 22.0302C52.5919 22.0302 52.78 21.8421 52.78 21.6102C52.78 21.3782 52.5919 21.1902 52.36 21.1902C52.128 21.1902 51.9399 21.3782 51.9399 21.6102C51.9399 21.8421 52.128 22.0302 52.36 22.0302Z" fill="url(#paint46_linear_6:1052)"/>
<path d="M29.1 14.1602C29.5805 14.1602 29.97 13.7706 29.97 13.2902C29.97 12.8097 29.5805 12.4202 29.1 12.4202C28.6195 12.4202 28.23 12.8097 28.23 13.2902C28.23 13.7706 28.6195 14.1602 29.1 14.1602Z" fill="url(#paint47_linear_6:1052)"/>
<path d="M33.7502 16.9102C34.2306 16.9102 34.6201 16.5206 34.6201 16.0402C34.6201 15.5597 34.2306 15.1702 33.7502 15.1702C33.2697 15.1702 32.8801 15.5597 32.8801 16.0402C32.8801 16.5206 33.2697 16.9102 33.7502 16.9102Z" fill="url(#paint48_linear_6:1052)"/>
<path d="M38.4003 19.6602C38.8808 19.6602 39.2703 19.2706 39.2703 18.7902C39.2703 18.3097 38.8808 17.9202 38.4003 17.9202C37.9198 17.9202 37.5303 18.3097 37.5303 18.7902C37.5303 19.2706 37.9198 19.6602 38.4003 19.6602Z" fill="url(#paint49_linear_6:1052)"/>
<path d="M43.0502 22.4102C43.5307 22.4102 43.9202 22.0206 43.9202 21.5402C43.9202 21.0597 43.5307 20.6702 43.0502 20.6702C42.5697 20.6702 42.1802 21.0597 42.1802 21.5402C42.1802 22.0206 42.5697 22.4102 43.0502 22.4102Z" fill="url(#paint50_linear_6:1052)"/>
<path d="M47.7101 25.1502C48.1906 25.1502 48.5801 24.7606 48.5801 24.2802C48.5801 23.7997 48.1906 23.4102 47.7101 23.4102C47.2296 23.4102 46.8401 23.7997 46.8401 24.2802C46.8401 24.7606 47.2296 25.1502 47.7101 25.1502Z" fill="url(#paint51_linear_6:1052)"/>
<path d="M52.36 27.4501C52.5919 27.4501 52.78 27.2621 52.78 27.0301C52.78 26.7981 52.5919 26.6101 52.36 26.6101C52.128 26.6101 51.9399 26.7981 51.9399 27.0301C51.9399 27.2621 52.128 27.4501 52.36 27.4501Z" fill="url(#paint52_linear_6:1052)"/>
<path d="M29.1001 20.4502C30.0611 20.4502 30.8401 19.6712 30.8401 18.7102C30.8401 17.7492 30.0611 16.9702 29.1001 16.9702C28.1391 16.9702 27.3601 17.7492 27.3601 18.7102C27.3601 19.6712 28.1391 20.4502 29.1001 20.4502Z" fill="url(#paint53_linear_6:1052)"/>
<path d="M33.7503 23.2002C34.7113 23.2002 35.4903 22.4212 35.4903 21.4602C35.4903 20.4992 34.7113 19.7202 33.7503 19.7202C32.7893 19.7202 32.0103 20.4992 32.0103 21.4602C32.0103 22.4212 32.7893 23.2002 33.7503 23.2002Z" fill="url(#paint54_linear_6:1052)"/>
<path d="M38.4002 25.9502C39.3612 25.9502 40.1402 25.1712 40.1402 24.2102C40.1402 23.2492 39.3612 22.4702 38.4002 22.4702C37.4392 22.4702 36.6602 23.2492 36.6602 24.2102C36.6602 25.1712 37.4392 25.9502 38.4002 25.9502Z" fill="url(#paint55_linear_6:1052)"/>
<path d="M43.05 28.6902C44.011 28.6902 44.79 27.9112 44.79 26.9502C44.79 25.9892 44.011 25.2102 43.05 25.2102C42.0891 25.2102 41.3101 25.9892 41.3101 26.9502C41.3101 27.9112 42.0891 28.6902 43.05 28.6902Z" fill="url(#paint56_linear_6:1052)"/>
<path d="M47.7101 30.5701C48.1906 30.5701 48.5801 30.1806 48.5801 29.7001C48.5801 29.2196 48.1906 28.8301 47.7101 28.8301C47.2296 28.8301 46.8401 29.2196 46.8401 29.7001C46.8401 30.1806 47.2296 30.5701 47.7101 30.5701Z" fill="url(#paint57_linear_6:1052)"/>
<path d="M52.36 32.87C52.5919 32.87 52.78 32.682 52.78 32.45C52.78 32.2181 52.5919 32.03 52.36 32.03C52.128 32.03 51.9399 32.2181 51.9399 32.45C51.9399 32.682 52.128 32.87 52.36 32.87Z" fill="url(#paint58_linear_6:1052)"/>
<path d="M29.1001 25.8701C30.0611 25.8701 30.8401 25.0911 30.8401 24.1301C30.8401 23.1692 30.0611 22.3901 29.1001 22.3901C28.1391 22.3901 27.3601 23.1692 27.3601 24.1301C27.3601 25.0911 28.1391 25.8701 29.1001 25.8701Z" fill="url(#paint59_linear_6:1052)"/>
<path d="M33.7503 28.6201C34.7113 28.6201 35.4903 27.8411 35.4903 26.8801C35.4903 25.9192 34.7113 25.1401 33.7503 25.1401C32.7893 25.1401 32.0103 25.9192 32.0103 26.8801C32.0103 27.8411 32.7893 28.6201 33.7503 28.6201Z" fill="url(#paint60_linear_6:1052)"/>
<path d="M43.05 34.1101C44.011 34.1101 44.79 33.3311 44.79 32.3701C44.79 31.4092 44.011 30.6301 43.05 30.6301C42.0891 30.6301 41.3101 31.4092 41.3101 32.3701C41.3101 33.3311 42.0891 34.1101 43.05 34.1101Z" fill="url(#paint61_linear_6:1052)"/>
<path d="M47.7101 35.99C48.1906 35.99 48.5801 35.6005 48.5801 35.12C48.5801 34.6395 48.1906 34.25 47.7101 34.25C47.2296 34.25 46.8401 34.6395 46.8401 35.12C46.8401 35.6005 47.2296 35.99 47.7101 35.99Z" fill="url(#paint62_linear_6:1052)"/>
<path d="M52.36 38.2902C52.5919 38.2902 52.78 38.1022 52.78 37.8702C52.78 37.6382 52.5919 37.4502 52.36 37.4502C52.128 37.4502 51.9399 37.6382 51.9399 37.8702C51.9399 38.1022 52.128 38.2902 52.36 38.2902Z" fill="url(#paint63_linear_6:1052)"/>
<path d="M29.1 30.4202C29.5805 30.4202 29.97 30.0307 29.97 29.5502C29.97 29.0697 29.5805 28.6802 29.1 28.6802C28.6195 28.6802 28.23 29.0697 28.23 29.5502C28.23 30.0307 28.6195 30.4202 29.1 30.4202Z" fill="url(#paint64_linear_6:1052)"/>
<path d="M33.7502 33.1602C34.2306 33.1602 34.6201 32.7706 34.6201 32.2902C34.6201 31.8097 34.2306 31.4202 33.7502 31.4202C33.2697 31.4202 32.8801 31.8097 32.8801 32.2902C32.8801 32.7706 33.2697 33.1602 33.7502 33.1602Z" fill="url(#paint65_linear_6:1052)"/>
<path d="M38.4003 35.9102C38.8808 35.9102 39.2703 35.5206 39.2703 35.0402C39.2703 34.5597 38.8808 34.1702 38.4003 34.1702C37.9198 34.1702 37.5303 34.5597 37.5303 35.0402C37.5303 35.5206 37.9198 35.9102 38.4003 35.9102Z" fill="url(#paint66_linear_6:1052)"/>
<path d="M43.0502 38.6602C43.5307 38.6602 43.9202 38.2706 43.9202 37.7902C43.9202 37.3097 43.5307 36.9202 43.0502 36.9202C42.5697 36.9202 42.1802 37.3097 42.1802 37.7902C42.1802 38.2706 42.5697 38.6602 43.0502 38.6602Z" fill="url(#paint67_linear_6:1052)"/>
<path d="M47.7101 40.9601C47.942 40.9601 48.13 40.7721 48.13 40.5401C48.13 40.3082 47.942 40.1201 47.7101 40.1201C47.4781 40.1201 47.29 40.3082 47.29 40.5401C47.29 40.7721 47.4781 40.9601 47.7101 40.9601Z" fill="url(#paint68_linear_6:1052)"/>
<path d="M52.36 43.7101C52.5919 43.7101 52.78 43.5221 52.78 43.2901C52.78 43.0582 52.5919 42.8701 52.36 42.8701C52.128 42.8701 51.9399 43.0582 51.9399 43.2901C51.9399 43.5221 52.128 43.7101 52.36 43.7101Z" fill="url(#paint69_linear_6:1052)"/>
<path d="M29.1002 35.38C29.3321 35.38 29.5202 35.192 29.5202 34.96C29.5202 34.7281 29.3321 34.54 29.1002 34.54C28.8682 34.54 28.6802 34.7281 28.6802 34.96C28.6802 35.192 28.8682 35.38 29.1002 35.38Z" fill="url(#paint70_linear_6:1052)"/>
<path d="M33.7501 38.13C33.9821 38.13 34.1701 37.942 34.1701 37.71C34.1701 37.4781 33.9821 37.29 33.7501 37.29C33.5181 37.29 33.3301 37.4781 33.3301 37.71C33.3301 37.942 33.5181 38.13 33.7501 38.13Z" fill="url(#paint71_linear_6:1052)"/>
<path d="M38.4 40.88C38.632 40.88 38.82 40.692 38.82 40.46C38.82 40.2281 38.632 40.04 38.4 40.04C38.168 40.04 37.98 40.2281 37.98 40.46C37.98 40.692 38.168 40.88 38.4 40.88Z" fill="url(#paint72_linear_6:1052)"/>
<path d="M43.0501 43.63C43.2821 43.63 43.4701 43.442 43.4701 43.21C43.4701 42.9781 43.2821 42.79 43.0501 42.79C42.8182 42.79 42.6301 42.9781 42.6301 43.21C42.6301 43.442 42.8182 43.63 43.0501 43.63Z" fill="url(#paint73_linear_6:1052)"/>
<path d="M47.7101 46.38C47.942 46.38 48.13 46.192 48.13 45.96C48.13 45.7281 47.942 45.54 47.7101 45.54C47.4781 45.54 47.29 45.7281 47.29 45.96C47.29 46.192 47.4781 46.38 47.7101 46.38Z" fill="url(#paint74_linear_6:1052)"/>
<path d="M29.1002 40.8002C29.3321 40.8002 29.5202 40.6122 29.5202 40.3802C29.5202 40.1482 29.3321 39.9602 29.1002 39.9602C28.8682 39.9602 28.6802 40.1482 28.6802 40.3802C28.6802 40.6122 28.8682 40.8002 29.1002 40.8002Z" fill="url(#paint75_linear_6:1052)"/>
<path d="M33.7501 43.5502C33.9821 43.5502 34.1701 43.3622 34.1701 43.1302C34.1701 42.8982 33.9821 42.7102 33.7501 42.7102C33.5181 42.7102 33.3301 42.8982 33.3301 43.1302C33.3301 43.3622 33.5181 43.5502 33.7501 43.5502Z" fill="url(#paint76_linear_6:1052)"/>
<path d="M38.4 46.3002C38.632 46.3002 38.82 46.1122 38.82 45.8802C38.82 45.6482 38.632 45.4602 38.4 45.4602C38.168 45.4602 37.98 45.6482 37.98 45.8802C37.98 46.1122 38.168 46.3002 38.4 46.3002Z" fill="url(#paint77_linear_6:1052)"/>
<path d="M43.0501 49.0502C43.2821 49.0502 43.4701 48.8622 43.4701 48.6302C43.4701 48.3982 43.2821 48.2102 43.0501 48.2102C42.8182 48.2102 42.6301 48.3982 42.6301 48.6302C42.6301 48.8622 42.8182 49.0502 43.0501 49.0502Z" fill="url(#paint78_linear_6:1052)"/>
<path d="M29.1002 46.2201C29.3321 46.2201 29.5202 46.0321 29.5202 45.8001C29.5202 45.5682 29.3321 45.3801 29.1002 45.3801C28.8682 45.3801 28.6802 45.5682 28.6802 45.8001C28.6802 46.0321 28.8682 46.2201 29.1002 46.2201Z" fill="url(#paint79_linear_6:1052)"/>
<path d="M33.7501 48.9701C33.9821 48.9701 34.1701 48.7821 34.1701 48.5501C34.1701 48.3182 33.9821 48.1301 33.7501 48.1301C33.5181 48.1301 33.3301 48.3182 33.3301 48.5501C33.3301 48.7821 33.5181 48.9701 33.7501 48.9701Z" fill="url(#paint80_linear_6:1052)"/>
<path d="M38.4 51.7201C38.632 51.7201 38.82 51.5321 38.82 51.3001C38.82 51.0682 38.632 50.8801 38.4 50.8801C38.168 50.8801 37.98 51.0682 37.98 51.3001C37.98 51.5321 38.168 51.7201 38.4 51.7201Z" fill="url(#paint81_linear_6:1052)"/>
<path d="M29.1002 51.64C29.3321 51.64 29.5202 51.452 29.5202 51.22C29.5202 50.9881 29.3321 50.8 29.1002 50.8C28.8682 50.8 28.6802 50.9881 28.6802 51.22C28.6802 51.452 28.8682 51.64 29.1002 51.64Z" fill="url(#paint82_linear_6:1052)"/>
<path d="M33.7501 54.39C33.9821 54.39 34.1701 54.202 34.1701 53.97C34.1701 53.7381 33.9821 53.55 33.7501 53.55C33.5181 53.55 33.3301 53.7381 33.3301 53.97C33.3301 54.202 33.5181 54.39 33.7501 54.39Z" fill="url(#paint83_linear_6:1052)"/>
<path d="M29.1002 57.0602C29.3321 57.0602 29.5202 56.8722 29.5202 56.6402C29.5202 56.4083 29.3321 56.2202 29.1002 56.2202C28.8682 56.2202 28.6802 56.4083 28.6802 56.6402C28.6802 56.8722 28.8682 57.0602 29.1002 57.0602Z" fill="url(#paint84_linear_6:1052)"/>
<path d="M28.6202 1.84C28.8521 1.84 29.0402 1.652 29.0402 1.42C29.0402 1.1881 28.8521 1 28.6202 1C28.3882 1 28.2002 1.1881 28.2002 1.42C28.2002 1.652 28.3882 1.84 28.6202 1.84Z" fill="url(#paint85_linear_6:1052)"/>
<path d="M23.9701 4.59C24.202 4.59 24.39 4.402 24.39 4.17C24.39 3.9381 24.202 3.75 23.9701 3.75C23.7381 3.75 23.55 3.9381 23.55 4.17C23.55 4.402 23.7381 4.59 23.9701 4.59Z" fill="url(#paint86_linear_6:1052)"/>
<path d="M19.3199 7.34C19.5519 7.34 19.7399 7.152 19.7399 6.92C19.7399 6.6881 19.5519 6.5 19.3199 6.5C19.088 6.5 18.8999 6.6881 18.8999 6.92C18.8999 7.152 19.088 7.34 19.3199 7.34Z" fill="url(#paint87_linear_6:1052)"/>
<path d="M14.67 10.09C14.9019 10.09 15.09 9.902 15.09 9.67C15.09 9.4381 14.9019 9.25 14.67 9.25C14.438 9.25 14.25 9.4381 14.25 9.67C14.25 9.902 14.438 10.09 14.67 10.09Z" fill="url(#paint88_linear_6:1052)"/>
<path d="M10.0201 12.84C10.252 12.84 10.4401 12.652 10.4401 12.42C10.4401 12.1881 10.252 12 10.0201 12C9.7881 12 9.6001 12.1881 9.6001 12.42C9.6001 12.652 9.7881 12.84 10.0201 12.84Z" fill="url(#paint89_linear_6:1052)"/>
<path d="M28.6202 7.26023C28.8521 7.26023 29.0402 7.07213 29.0402 6.84023C29.0402 6.60823 28.8521 6.42023 28.6202 6.42023C28.3882 6.42023 28.2002 6.60823 28.2002 6.84023C28.2002 7.07213 28.3882 7.26023 28.6202 7.26023Z" fill="url(#paint90_linear_6:1052)"/>
<path d="M23.9701 10.0102C24.202 10.0102 24.39 9.82213 24.39 9.59023C24.39 9.35823 24.202 9.17023 23.9701 9.17023C23.7381 9.17023 23.55 9.35823 23.55 9.59023C23.55 9.82213 23.7381 10.0102 23.9701 10.0102Z" fill="url(#paint91_linear_6:1052)"/>
<path d="M19.3199 12.7602C19.5519 12.7602 19.7399 12.5721 19.7399 12.3402C19.7399 12.1082 19.5519 11.9202 19.3199 11.9202C19.088 11.9202 18.8999 12.1082 18.8999 12.3402C18.8999 12.5721 19.088 12.7602 19.3199 12.7602Z" fill="url(#paint92_linear_6:1052)"/>
<path d="M28.5501 1.84C28.7821 1.84 28.9701 1.652 28.9701 1.42C28.9701 1.1881 28.7821 1 28.5501 1C28.3182 1 28.1301 1.1881 28.1301 1.42C28.1301 1.652 28.3182 1.84 28.5501 1.84Z" fill="url(#paint93_linear_6:1052)"/>
<path d="M33.2 4.59C33.432 4.59 33.62 4.402 33.62 4.17C33.62 3.9381 33.432 3.75 33.2 3.75C32.9681 3.75 32.78 3.9381 32.78 4.17C32.78 4.402 32.9681 4.59 33.2 4.59Z" fill="url(#paint94_linear_6:1052)"/>
<path d="M37.8502 7.34C38.0821 7.34 38.2702 7.152 38.2702 6.92C38.2702 6.6881 38.0821 6.5 37.8502 6.5C37.6182 6.5 37.4302 6.6881 37.4302 6.92C37.4302 7.152 37.6182 7.34 37.8502 7.34Z" fill="url(#paint95_linear_6:1052)"/>
<path d="M42.5001 10.09C42.7321 10.09 42.9201 9.902 42.9201 9.67C42.9201 9.4381 42.7321 9.25 42.5001 9.25C42.2681 9.25 42.0801 9.4381 42.0801 9.67C42.0801 9.902 42.2681 10.09 42.5001 10.09Z" fill="url(#paint96_linear_6:1052)"/>
<path d="M47.16 12.84C47.392 12.84 47.58 12.652 47.58 12.42C47.58 12.1881 47.392 12 47.16 12C46.928 12 46.74 12.1881 46.74 12.42C46.74 12.652 46.928 12.84 47.16 12.84Z" fill="url(#paint97_linear_6:1052)"/>
<path d="M28.5501 7.26023C28.7821 7.26023 28.9701 7.07213 28.9701 6.84023C28.9701 6.60823 28.7821 6.42023 28.5501 6.42023C28.3182 6.42023 28.1301 6.60823 28.1301 6.84023C28.1301 7.07213 28.3182 7.26023 28.5501 7.26023Z" fill="url(#paint98_linear_6:1052)"/>
<path d="M33.2 10.0102C33.432 10.0102 33.62 9.82213 33.62 9.59023C33.62 9.35823 33.432 9.17023 33.2 9.17023C32.9681 9.17023 32.78 9.35823 32.78 9.59023C32.78 9.82213 32.9681 10.0102 33.2 10.0102Z" fill="url(#paint99_linear_6:1052)"/>
<path d="M37.8502 12.7602C38.0821 12.7602 38.2702 12.5721 38.2702 12.3402C38.2702 12.1082 38.0821 11.9202 37.8502 11.9202C37.6182 11.9202 37.4302 12.1082 37.4302 12.3402C37.4302 12.5721 37.6182 12.7602 37.8502 12.7602Z" fill="url(#paint100_linear_6:1052)"/>
<path d="M38.74 30.74C39.701 30.74 40.48 29.961 40.48 29C40.48 28.0391 39.701 27.26 38.74 27.26C37.779 27.26 37 28.0391 37 29C37 29.961 37.779 30.74 38.74 30.74Z" fill="url(#paint101_linear_6:1052)"/>
<defs>
<linearGradient id="paint0_linear_6:1052" x1="6.151" y1="15.266" x2="5.584" y2="16.82" gradientUnits="userSpaceOnUse">
<stop stop-color="#F16821"/>
<stop offset="1" stop-color="#FAB95B"/>
</linearGradient>
<linearGradient id="paint1_linear_6:1052" x1="15.451" y1="15.1962" x2="14.884" y2="16.7502" gradientUnits="userSpaceOnUse">
<stop stop-color="#F16821"/>
<stop offset="1" stop-color="#FAB95B"/>
</linearGradient>
<linearGradient id="paint2_linear_6:1052" x1="10.8011" y1="17.9362" x2="10.2341" y2="19.4902" gradientUnits="userSpaceOnUse">
<stop stop-color="#F16821"/>
<stop offset="1" stop-color="#FAB95B"/>
</linearGradient>
<linearGradient id="paint3_linear_6:1052" x1="6.151" y1="20.6862" x2="5.584" y2="22.2402" gradientUnits="userSpaceOnUse">
<stop stop-color="#F16821"/>
<stop offset="1" stop-color="#FAB95B"/>
</linearGradient>
<linearGradient id="paint4_linear_6:1052" x1="29.6485" y1="11.3762" x2="28.474" y2="14.5952" gradientUnits="userSpaceOnUse">
<stop stop-color="#F16821"/>
<stop offset="1" stop-color="#FAB95B"/>
</linearGradient>
<linearGradient id="paint5_linear_6:1052" x1="24.9986" y1="14.1262" x2="23.8241" y2="17.3452" gradientUnits="userSpaceOnUse">
<stop stop-color="#F16821"/>
<stop offset="1" stop-color="#FAB95B"/>
</linearGradient>
<linearGradient id="paint6_linear_6:1052" x1="20.3485" y1="16.8762" x2="19.174" y2="20.0952" gradientUnits="userSpaceOnUse">
<stop stop-color="#F16821"/>
<stop offset="1" stop-color="#FAB95B"/>
</linearGradient>
<linearGradient id="paint7_linear_6:1052" x1="15.6986" y1="19.6262" x2="14.5241" y2="22.8452" gradientUnits="userSpaceOnUse">
<stop stop-color="#F16821"/>
<stop offset="1" stop-color="#FAB95B"/>
</linearGradient>
<linearGradient id="paint8_linear_6:1052" x1="11.0487" y1="22.3662" x2="9.8742" y2="25.5852" gradientUnits="userSpaceOnUse">
<stop stop-color="#F16821"/>
<stop offset="1" stop-color="#FAB95B"/>
</linearGradient>
<linearGradient id="paint9_linear_6:1052" x1="6.151" y1="26.1061" x2="5.584" y2="27.6601" gradientUnits="userSpaceOnUse">
<stop stop-color="#F16821"/>
<stop offset="1" stop-color="#FAB95B"/>
</linearGradient>
<linearGradient id="paint10_linear_6:1052" x1="30.1272" y1="14.8822" x2="27.7782" y2="21.3202" gradientUnits="userSpaceOnUse">
<stop stop-color="#F16821"/>
<stop offset="1" stop-color="#FAB95B"/>
</linearGradient>
<linearGradient id="paint11_linear_6:1052" x1="25.4773" y1="17.6322" x2="23.1283" y2="24.0702" gradientUnits="userSpaceOnUse">
<stop stop-color="#F16821"/>
<stop offset="1" stop-color="#FAB95B"/>
</linearGradient>
<linearGradient id="paint12_linear_6:1052" x1="20.8271" y1="20.3822" x2="18.4781" y2="26.8202" gradientUnits="userSpaceOnUse">
<stop stop-color="#F16821"/>
<stop offset="1" stop-color="#FAB95B"/>
</linearGradient>
<linearGradient id="paint13_linear_6:1052" x1="16.177" y1="23.1222" x2="13.828" y2="29.5602" gradientUnits="userSpaceOnUse">
<stop stop-color="#F16821"/>
<stop offset="1" stop-color="#FAB95B"/>
</linearGradient>
<linearGradient id="paint14_linear_6:1052" x1="11.0487" y1="27.7861" x2="9.8742" y2="31.0051" gradientUnits="userSpaceOnUse">
<stop stop-color="#F16821"/>
<stop offset="1" stop-color="#FAB95B"/>
</linearGradient>
<linearGradient id="paint15_linear_6:1052" x1="6.151" y1="31.526" x2="5.584" y2="33.08" gradientUnits="userSpaceOnUse">
<stop stop-color="#F16821"/>
<stop offset="1" stop-color="#FAB95B"/>
</linearGradient>
<linearGradient id="paint16_linear_6:1052" x1="30.1272" y1="20.3021" x2="27.7782" y2="26.7401" gradientUnits="userSpaceOnUse">
<stop stop-color="#F16821"/>
<stop offset="1" stop-color="#FAB95B"/>
</linearGradient>
<linearGradient id="paint17_linear_6:1052" x1="25.4773" y1="23.0521" x2="23.1283" y2="29.4901" gradientUnits="userSpaceOnUse">
<stop stop-color="#F16821"/>
<stop offset="1" stop-color="#FAB95B"/>
</linearGradient>
<linearGradient id="paint18_linear_6:1052" x1="20.8271" y1="25.7921" x2="18.4781" y2="32.2301" gradientUnits="userSpaceOnUse">
<stop stop-color="#F16821"/>
<stop offset="1" stop-color="#FAB95B"/>
</linearGradient>
<linearGradient id="paint19_linear_6:1052" x1="16.177" y1="28.5421" x2="13.828" y2="34.9801" gradientUnits="userSpaceOnUse">
<stop stop-color="#F16821"/>
<stop offset="1" stop-color="#FAB95B"/>
</linearGradient>
<linearGradient id="paint20_linear_6:1052" x1="11.0487" y1="33.206" x2="9.8742" y2="36.425" gradientUnits="userSpaceOnUse">
<stop stop-color="#F16821"/>
<stop offset="1" stop-color="#FAB95B"/>
</linearGradient>
<linearGradient id="paint21_linear_6:1052" x1="6.151" y1="36.9462" x2="5.584" y2="38.5002" gradientUnits="userSpaceOnUse">
<stop stop-color="#F16821"/>
<stop offset="1" stop-color="#FAB95B"/>
</linearGradient>
<linearGradient id="paint22_linear_6:1052" x1="29.6485" y1="27.6362" x2="28.474" y2="30.8552" gradientUnits="userSpaceOnUse">
<stop stop-color="#F16821"/>
<stop offset="1" stop-color="#FAB95B"/>
</linearGradient>
<linearGradient id="paint23_linear_6:1052" x1="24.9986" y1="30.3762" x2="23.8241" y2="33.5952" gradientUnits="userSpaceOnUse">
<stop stop-color="#F16821"/>
<stop offset="1" stop-color="#FAB95B"/>
</linearGradient>
<linearGradient id="paint24_linear_6:1052" x1="20.3485" y1="33.1262" x2="19.174" y2="36.3452" gradientUnits="userSpaceOnUse">
<stop stop-color="#F16821"/>
<stop offset="1" stop-color="#FAB95B"/>
</linearGradient>
<linearGradient id="paint25_linear_6:1052" x1="15.6986" y1="35.8762" x2="14.5241" y2="39.0952" gradientUnits="userSpaceOnUse">
<stop stop-color="#F16821"/>
<stop offset="1" stop-color="#FAB95B"/>
</linearGradient>
<linearGradient id="paint26_linear_6:1052" x1="10.8011" y1="39.6161" x2="10.2341" y2="41.1701" gradientUnits="userSpaceOnUse">
<stop stop-color="#F16821"/>
<stop offset="1" stop-color="#FAB95B"/>
</linearGradient>
<linearGradient id="paint27_linear_6:1052" x1="6.151" y1="42.3661" x2="5.584" y2="43.9201" gradientUnits="userSpaceOnUse">
<stop stop-color="#F16821"/>
<stop offset="1" stop-color="#FAB95B"/>
</linearGradient>
<linearGradient id="paint28_linear_6:1052" x1="29.401" y1="34.036" x2="28.834" y2="35.59" gradientUnits="userSpaceOnUse">
<stop stop-color="#F16821"/>
<stop offset="1" stop-color="#FAB95B"/>
</linearGradient>
<linearGradient id="paint29_linear_6:1052" x1="24.7511" y1="36.786" x2="24.1841" y2="38.34" gradientUnits="userSpaceOnUse">
<stop stop-color="#F16821"/>
<stop offset="1" stop-color="#FAB95B"/>
</linearGradient>
<linearGradient id="paint30_linear_6:1052" x1="20.1012" y1="39.536" x2="19.5342" y2="41.09" gradientUnits="userSpaceOnUse">
<stop stop-color="#F16821"/>
<stop offset="1" stop-color="#FAB95B"/>
</linearGradient>
<linearGradient id="paint31_linear_6:1052" x1="15.451" y1="42.286" x2="14.884" y2="43.84" gradientUnits="userSpaceOnUse">
<stop stop-color="#F16821"/>
<stop offset="1" stop-color="#FAB95B"/>
</linearGradient>
<linearGradient id="paint32_linear_6:1052" x1="10.8011" y1="45.036" x2="10.2341" y2="46.59" gradientUnits="userSpaceOnUse">
<stop stop-color="#F16821"/>
<stop offset="1" stop-color="#FAB95B"/>
</linearGradient>
<linearGradient id="paint33_linear_6:1052" x1="29.401" y1="39.4562" x2="28.834" y2="41.0102" gradientUnits="userSpaceOnUse">
<stop stop-color="#F16821"/>
<stop offset="1" stop-color="#FAB95B"/>
</linearGradient>
<linearGradient id="paint34_linear_6:1052" x1="24.7511" y1="42.2062" x2="24.1841" y2="43.7602" gradientUnits="userSpaceOnUse">
<stop stop-color="#F16821"/>
<stop offset="1" stop-color="#FAB95B"/>
</linearGradient>
<linearGradient id="paint35_linear_6:1052" x1="20.1012" y1="44.9562" x2="19.5342" y2="46.5102" gradientUnits="userSpaceOnUse">
<stop stop-color="#F16821"/>
<stop offset="1" stop-color="#FAB95B"/>
</linearGradient>
<linearGradient id="paint36_linear_6:1052" x1="15.451" y1="47.7062" x2="14.884" y2="49.2602" gradientUnits="userSpaceOnUse">
<stop stop-color="#F16821"/>
<stop offset="1" stop-color="#FAB95B"/>
</linearGradient>
<linearGradient id="paint37_linear_6:1052" x1="29.401" y1="44.8761" x2="28.834" y2="46.4301" gradientUnits="userSpaceOnUse">
<stop stop-color="#F16821"/>
<stop offset="1" stop-color="#FAB95B"/>
</linearGradient>
<linearGradient id="paint38_linear_6:1052" x1="24.7511" y1="47.6261" x2="24.1841" y2="49.1801" gradientUnits="userSpaceOnUse">
<stop stop-color="#F16821"/>
<stop offset="1" stop-color="#FAB95B"/>
</linearGradient>
<linearGradient id="paint39_linear_6:1052" x1="20.1012" y1="50.3761" x2="19.5342" y2="51.9301" gradientUnits="userSpaceOnUse">
<stop stop-color="#F16821"/>
<stop offset="1" stop-color="#FAB95B"/>
</linearGradient>
<linearGradient id="paint40_linear_6:1052" x1="29.401" y1="50.296" x2="28.834" y2="51.85" gradientUnits="userSpaceOnUse">
<stop stop-color="#F16821"/>
<stop offset="1" stop-color="#FAB95B"/>
</linearGradient>
<linearGradient id="paint41_linear_6:1052" x1="24.7511" y1="53.046" x2="24.1841" y2="54.6" gradientUnits="userSpaceOnUse">
<stop stop-color="#F16821"/>
<stop offset="1" stop-color="#FAB95B"/>
</linearGradient>
<linearGradient id="paint42_linear_6:1052" x1="29.401" y1="55.7162" x2="28.834" y2="57.2702" gradientUnits="userSpaceOnUse">
<stop stop-color="#F16821"/>
<stop offset="1" stop-color="#FAB95B"/>
</linearGradient>
<linearGradient id="paint43_linear_6:1052" x1="52.591" y1="15.266" x2="52.024" y2="16.8201" gradientUnits="userSpaceOnUse">
<stop stop-color="#F16821"/>
<stop offset="1" stop-color="#FAB95B"/>
</linearGradient>
<linearGradient id="paint44_linear_6:1052" x1="43.2811" y1="15.1962" x2="42.7141" y2="16.7502" gradientUnits="userSpaceOnUse">
<stop stop-color="#F16821"/>
<stop offset="1" stop-color="#FAB95B"/>
</linearGradient>
<linearGradient id="paint45_linear_6:1052" x1="47.941" y1="17.9362" x2="47.374" y2="19.4902" gradientUnits="userSpaceOnUse">
<stop stop-color="#F16821"/>
<stop offset="1" stop-color="#FAB95B"/>
</linearGradient>
<linearGradient id="paint46_linear_6:1052" x1="52.591" y1="20.6862" x2="52.024" y2="22.2402" gradientUnits="userSpaceOnUse">
<stop stop-color="#F16821"/>
<stop offset="1" stop-color="#FAB95B"/>
</linearGradient>
<linearGradient id="paint47_linear_6:1052" x1="29.5785" y1="11.3762" x2="28.404" y2="14.5952" gradientUnits="userSpaceOnUse">
<stop stop-color="#F16821"/>
<stop offset="1" stop-color="#FAB95B"/>
</linearGradient>
<linearGradient id="paint48_linear_6:1052" x1="34.2286" y1="14.1262" x2="33.0541" y2="17.3452" gradientUnits="userSpaceOnUse">
<stop stop-color="#F16821"/>
<stop offset="1" stop-color="#FAB95B"/>
</linearGradient>
<linearGradient id="paint49_linear_6:1052" x1="38.8788" y1="16.8762" x2="37.7043" y2="20.0952" gradientUnits="userSpaceOnUse">
<stop stop-color="#F16821"/>
<stop offset="1" stop-color="#FAB95B"/>
</linearGradient>
<linearGradient id="paint50_linear_6:1052" x1="43.5287" y1="19.6262" x2="42.3542" y2="22.8452" gradientUnits="userSpaceOnUse">
<stop stop-color="#F16821"/>
<stop offset="1" stop-color="#FAB95B"/>
</linearGradient>
<linearGradient id="paint51_linear_6:1052" x1="48.1886" y1="22.3662" x2="47.0141" y2="25.5852" gradientUnits="userSpaceOnUse">
<stop stop-color="#F16821"/>
<stop offset="1" stop-color="#FAB95B"/>
</linearGradient>
<linearGradient id="paint52_linear_6:1052" x1="52.591" y1="26.1061" x2="52.024" y2="27.6601" gradientUnits="userSpaceOnUse">
<stop stop-color="#F16821"/>
<stop offset="1" stop-color="#FAB95B"/>
</linearGradient>
<linearGradient id="paint53_linear_6:1052" x1="30.0571" y1="14.8822" x2="27.7081" y2="21.3202" gradientUnits="userSpaceOnUse">
<stop stop-color="#F16821"/>
<stop offset="1" stop-color="#FAB95B"/>
</linearGradient>
<linearGradient id="paint54_linear_6:1052" x1="34.7073" y1="17.6322" x2="32.3583" y2="24.0702" gradientUnits="userSpaceOnUse">
<stop stop-color="#F16821"/>
<stop offset="1" stop-color="#FAB95B"/>
</linearGradient>
<linearGradient id="paint55_linear_6:1052" x1="39.3572" y1="20.3822" x2="37.0082" y2="26.8202" gradientUnits="userSpaceOnUse">
<stop stop-color="#F16821"/>
<stop offset="1" stop-color="#FAB95B"/>
</linearGradient>
<linearGradient id="paint56_linear_6:1052" x1="44.007" y1="23.1222" x2="41.658" y2="29.5602" gradientUnits="userSpaceOnUse">
<stop stop-color="#F16821"/>
<stop offset="1" stop-color="#FAB95B"/>
</linearGradient>
<linearGradient id="paint57_linear_6:1052" x1="48.1886" y1="27.7861" x2="47.0141" y2="31.0051" gradientUnits="userSpaceOnUse">
<stop stop-color="#F16821"/>
<stop offset="1" stop-color="#FAB95B"/>
</linearGradient>
<linearGradient id="paint58_linear_6:1052" x1="52.591" y1="31.526" x2="52.024" y2="33.08" gradientUnits="userSpaceOnUse">
<stop stop-color="#F16821"/>
<stop offset="1" stop-color="#FAB95B"/>
</linearGradient>
<linearGradient id="paint59_linear_6:1052" x1="30.0571" y1="20.3021" x2="27.7081" y2="26.7401" gradientUnits="userSpaceOnUse">
<stop stop-color="#F16821"/>
<stop offset="1" stop-color="#FAB95B"/>
</linearGradient>
<linearGradient id="paint60_linear_6:1052" x1="34.7073" y1="23.0521" x2="32.3583" y2="29.4901" gradientUnits="userSpaceOnUse">
<stop stop-color="#F16821"/>
<stop offset="1" stop-color="#FAB95B"/>
</linearGradient>
<linearGradient id="paint61_linear_6:1052" x1="44.007" y1="28.5421" x2="41.658" y2="34.9801" gradientUnits="userSpaceOnUse">
<stop stop-color="#F16821"/>
<stop offset="1" stop-color="#FAB95B"/>
</linearGradient>
<linearGradient id="paint62_linear_6:1052" x1="48.1886" y1="33.206" x2="47.0141" y2="36.425" gradientUnits="userSpaceOnUse">
<stop stop-color="#F16821"/>
<stop offset="1" stop-color="#FAB95B"/>
</linearGradient>
<linearGradient id="paint63_linear_6:1052" x1="52.591" y1="36.9462" x2="52.024" y2="38.5002" gradientUnits="userSpaceOnUse">
<stop stop-color="#F16821"/>
<stop offset="1" stop-color="#FAB95B"/>
</linearGradient>
<linearGradient id="paint64_linear_6:1052" x1="29.5785" y1="27.6362" x2="28.404" y2="30.8552" gradientUnits="userSpaceOnUse">
<stop stop-color="#F16821"/>
<stop offset="1" stop-color="#FAB95B"/>
</linearGradient>
<linearGradient id="paint65_linear_6:1052" x1="34.2286" y1="30.3762" x2="33.0541" y2="33.5952" gradientUnits="userSpaceOnUse">
<stop stop-color="#F16821"/>
<stop offset="1" stop-color="#FAB95B"/>
</linearGradient>
<linearGradient id="paint66_linear_6:1052" x1="38.8788" y1="33.1262" x2="37.7043" y2="36.3452" gradientUnits="userSpaceOnUse">
<stop stop-color="#F16821"/>
<stop offset="1" stop-color="#FAB95B"/>
</linearGradient>
<linearGradient id="paint67_linear_6:1052" x1="43.5287" y1="35.8762" x2="42.3542" y2="39.0952" gradientUnits="userSpaceOnUse">
<stop stop-color="#F16821"/>
<stop offset="1" stop-color="#FAB95B"/>
</linearGradient>
<linearGradient id="paint68_linear_6:1052" x1="47.941" y1="39.6161" x2="47.374" y2="41.1701" gradientUnits="userSpaceOnUse">
<stop stop-color="#F16821"/>
<stop offset="1" stop-color="#FAB95B"/>
</linearGradient>
<linearGradient id="paint69_linear_6:1052" x1="52.591" y1="42.3661" x2="52.024" y2="43.9202" gradientUnits="userSpaceOnUse">
<stop stop-color="#F16821"/>
<stop offset="1" stop-color="#FAB95B"/>
</linearGradient>
<linearGradient id="paint70_linear_6:1052" x1="29.3312" y1="34.036" x2="28.7642" y2="35.59" gradientUnits="userSpaceOnUse">
<stop stop-color="#F16821"/>
<stop offset="1" stop-color="#FAB95B"/>
</linearGradient>
<linearGradient id="paint71_linear_6:1052" x1="33.9811" y1="36.786" x2="33.4141" y2="38.34" gradientUnits="userSpaceOnUse">
<stop stop-color="#F16821"/>
<stop offset="1" stop-color="#FAB95B"/>
</linearGradient>
<linearGradient id="paint72_linear_6:1052" x1="38.631" y1="39.536" x2="38.064" y2="41.09" gradientUnits="userSpaceOnUse">
<stop stop-color="#F16821"/>
<stop offset="1" stop-color="#FAB95B"/>
</linearGradient>
<linearGradient id="paint73_linear_6:1052" x1="43.2811" y1="42.286" x2="42.7141" y2="43.84" gradientUnits="userSpaceOnUse">
<stop stop-color="#F16821"/>
<stop offset="1" stop-color="#FAB95B"/>
</linearGradient>
<linearGradient id="paint74_linear_6:1052" x1="47.941" y1="45.036" x2="47.374" y2="46.59" gradientUnits="userSpaceOnUse">
<stop stop-color="#F16821"/>
<stop offset="1" stop-color="#FAB95B"/>
</linearGradient>
<linearGradient id="paint75_linear_6:1052" x1="29.3312" y1="39.4562" x2="28.7642" y2="41.0102" gradientUnits="userSpaceOnUse">
<stop stop-color="#F16821"/>
<stop offset="1" stop-color="#FAB95B"/>
</linearGradient>
<linearGradient id="paint76_linear_6:1052" x1="33.9811" y1="42.2062" x2="33.4141" y2="43.7602" gradientUnits="userSpaceOnUse">
<stop stop-color="#F16821"/>
<stop offset="1" stop-color="#FAB95B"/>
</linearGradient>
<linearGradient id="paint77_linear_6:1052" x1="38.631" y1="44.9562" x2="38.064" y2="46.5102" gradientUnits="userSpaceOnUse">
<stop stop-color="#F16821"/>
<stop offset="1" stop-color="#FAB95B"/>
</linearGradient>
<linearGradient id="paint78_linear_6:1052" x1="43.2811" y1="47.7062" x2="42.7141" y2="49.2602" gradientUnits="userSpaceOnUse">
<stop stop-color="#F16821"/>
<stop offset="1" stop-color="#FAB95B"/>
</linearGradient>
<linearGradient id="paint79_linear_6:1052" x1="29.3312" y1="44.8761" x2="28.7642" y2="46.4301" gradientUnits="userSpaceOnUse">
<stop stop-color="#F16821"/>
<stop offset="1" stop-color="#FAB95B"/>
</linearGradient>
<linearGradient id="paint80_linear_6:1052" x1="33.9811" y1="47.6261" x2="33.4141" y2="49.1801" gradientUnits="userSpaceOnUse">
<stop stop-color="#F16821"/>
<stop offset="1" stop-color="#FAB95B"/>
</linearGradient>
<linearGradient id="paint81_linear_6:1052" x1="38.631" y1="50.3761" x2="38.064" y2="51.9301" gradientUnits="userSpaceOnUse">
<stop stop-color="#F16821"/>
<stop offset="1" stop-color="#FAB95B"/>
</linearGradient>
<linearGradient id="paint82_linear_6:1052" x1="29.3312" y1="50.296" x2="28.7642" y2="51.85" gradientUnits="userSpaceOnUse">
<stop stop-color="#F16821"/>
<stop offset="1" stop-color="#FAB95B"/>
</linearGradient>
<linearGradient id="paint83_linear_6:1052" x1="33.9811" y1="53.046" x2="33.4141" y2="54.6" gradientUnits="userSpaceOnUse">
<stop stop-color="#F16821"/>
<stop offset="1" stop-color="#FAB95B"/>
</linearGradient>
<linearGradient id="paint84_linear_6:1052" x1="29.3312" y1="55.7162" x2="28.7642" y2="57.2702" gradientUnits="userSpaceOnUse">
<stop stop-color="#F16821"/>
<stop offset="1" stop-color="#FAB95B"/>
</linearGradient>
<linearGradient id="paint85_linear_6:1052" x1="28.8512" y1="0.496" x2="28.2842" y2="2.05" gradientUnits="userSpaceOnUse">
<stop stop-color="#F16821"/>
<stop offset="1" stop-color="#FAB95B"/>
</linearGradient>
<linearGradient id="paint86_linear_6:1052" x1="24.201" y1="3.246" x2="23.634" y2="4.8" gradientUnits="userSpaceOnUse">
<stop stop-color="#F16821"/>
<stop offset="1" stop-color="#FAB95B"/>
</linearGradient>
<linearGradient id="paint87_linear_6:1052" x1="19.5509" y1="5.996" x2="18.9839" y2="7.55" gradientUnits="userSpaceOnUse">
<stop stop-color="#F16821"/>
<stop offset="1" stop-color="#FAB95B"/>
</linearGradient>
<linearGradient id="paint88_linear_6:1052" x1="14.901" y1="8.746" x2="14.334" y2="10.3" gradientUnits="userSpaceOnUse">
<stop stop-color="#F16821"/>
<stop offset="1" stop-color="#FAB95B"/>
</linearGradient>
<linearGradient id="paint89_linear_6:1052" x1="10.2511" y1="11.496" x2="9.6841" y2="13.05" gradientUnits="userSpaceOnUse">
<stop stop-color="#F16821"/>
<stop offset="1" stop-color="#FAB95B"/>
</linearGradient>
<linearGradient id="paint90_linear_6:1052" x1="28.8512" y1="5.91623" x2="28.2842" y2="7.47023" gradientUnits="userSpaceOnUse">
<stop stop-color="#F16821"/>
<stop offset="1" stop-color="#FAB95B"/>
</linearGradient>
<linearGradient id="paint91_linear_6:1052" x1="24.201" y1="8.66623" x2="23.634" y2="10.2202" gradientUnits="userSpaceOnUse">
<stop stop-color="#F16821"/>
<stop offset="1" stop-color="#FAB95B"/>
</linearGradient>
<linearGradient id="paint92_linear_6:1052" x1="19.5509" y1="11.4162" x2="18.9839" y2="12.9702" gradientUnits="userSpaceOnUse">
<stop stop-color="#F16821"/>
<stop offset="1" stop-color="#FAB95B"/>
</linearGradient>
<linearGradient id="paint93_linear_6:1052" x1="28.7811" y1="0.496" x2="28.2141" y2="2.05" gradientUnits="userSpaceOnUse">
<stop stop-color="#F16821"/>
<stop offset="1" stop-color="#FAB95B"/>
</linearGradient>
<linearGradient id="paint94_linear_6:1052" x1="33.431" y1="3.246" x2="32.864" y2="4.8" gradientUnits="userSpaceOnUse">
<stop stop-color="#F16821"/>
<stop offset="1" stop-color="#FAB95B"/>
</linearGradient>
<linearGradient id="paint95_linear_6:1052" x1="38.0812" y1="5.996" x2="37.5142" y2="7.55" gradientUnits="userSpaceOnUse">
<stop stop-color="#F16821"/>
<stop offset="1" stop-color="#FAB95B"/>
</linearGradient>
<linearGradient id="paint96_linear_6:1052" x1="42.7311" y1="8.746" x2="42.1641" y2="10.3" gradientUnits="userSpaceOnUse">
<stop stop-color="#F16821"/>
<stop offset="1" stop-color="#FAB95B"/>
</linearGradient>
<linearGradient id="paint97_linear_6:1052" x1="47.391" y1="11.496" x2="46.824" y2="13.05" gradientUnits="userSpaceOnUse">
<stop stop-color="#F16821"/>
<stop offset="1" stop-color="#FAB95B"/>
</linearGradient>
<linearGradient id="paint98_linear_6:1052" x1="28.7811" y1="5.91623" x2="28.2141" y2="7.47023" gradientUnits="userSpaceOnUse">
<stop stop-color="#F16821"/>
<stop offset="1" stop-color="#FAB95B"/>
</linearGradient>
<linearGradient id="paint99_linear_6:1052" x1="33.431" y1="8.66623" x2="32.864" y2="10.2202" gradientUnits="userSpaceOnUse">
<stop stop-color="#F16821"/>
<stop offset="1" stop-color="#FAB95B"/>
</linearGradient>
<linearGradient id="paint100_linear_6:1052" x1="38.0812" y1="11.4162" x2="37.5142" y2="12.9702" gradientUnits="userSpaceOnUse">
<stop stop-color="#F16821"/>
<stop offset="1" stop-color="#FAB95B"/>
</linearGradient>
<linearGradient id="paint101_linear_6:1052" x1="39.697" y1="25.172" x2="37.348" y2="31.61" gradientUnits="userSpaceOnUse">
<stop stop-color="#F16821"/>
<stop offset="1" stop-color="#FAB95B"/>
</linearGradient>
</defs>
</svg>
