<svg width="24" height="24" viewBox="0 0 24 24" fill="none" xmlns="http://www.w3.org/2000/svg">
<path d="M2.44964 6.8731C2.5456 6.8731 2.62343 6.7953 2.62343 6.6993C2.62343 6.60335 2.5456 6.52551 2.44964 6.52551C2.35364 6.52551 2.27585 6.60335 2.27585 6.6993C2.27585 6.7953 2.35364 6.8731 2.44964 6.8731Z" fill="url(#paint0_linear_6:1156)"/>
<path d="M6.29794 6.84423C6.39394 6.84423 6.47173 6.76644 6.47173 6.67044C6.47173 6.57444 6.39394 6.49664 6.29794 6.49664C6.20198 6.49664 6.12415 6.57444 6.12415 6.67044C6.12415 6.76644 6.20198 6.84423 6.29794 6.84423Z" fill="url(#paint1_linear_6:1156)"/>
<path d="M4.37384 7.97802C4.46983 7.97802 4.54763 7.90018 4.54763 7.80422C4.54763 7.70822 4.46983 7.63043 4.37384 7.63043C4.27788 7.63043 4.20004 7.70822 4.20004 7.80422C4.20004 7.90018 4.27788 7.97802 4.37384 7.97802Z" fill="url(#paint2_linear_6:1156)"/>
<path d="M2.44964 9.11596C2.5456 9.11596 2.62343 9.03812 2.62343 8.94216C2.62343 8.84616 2.5456 8.76837 2.44964 8.76837C2.35364 8.76837 2.27585 8.84616 2.27585 8.94216C2.27585 9.03812 2.35364 9.11596 2.44964 9.11596Z" fill="url(#paint3_linear_6:1156)"/>
<path d="M12.0704 5.8594C12.2692 5.8594 12.4304 5.69819 12.4304 5.4994C12.4304 5.30058 12.2692 5.1394 12.0704 5.1394C11.8716 5.1394 11.7104 5.30058 11.7104 5.4994C11.7104 5.69819 11.8716 5.8594 12.0704 5.8594Z" fill="url(#paint4_linear_6:1156)"/>
<path d="M10.1463 6.99734C10.3451 6.99734 10.5063 6.83613 10.5063 6.63734C10.5063 6.43852 10.3451 6.27734 10.1463 6.27734C9.94747 6.27734 9.78625 6.43852 9.78625 6.63734C9.78625 6.83613 9.94747 6.99734 10.1463 6.99734Z" fill="url(#paint5_linear_6:1156)"/>
<path d="M8.22206 8.13528C8.42089 8.13528 8.58206 7.97407 8.58206 7.77528C8.58206 7.57646 8.42089 7.41528 8.22206 7.41528C8.02323 7.41528 7.86206 7.57646 7.86206 7.77528C7.86206 7.97407 8.02323 8.13528 8.22206 8.13528Z" fill="url(#paint6_linear_6:1156)"/>
<path d="M6.29796 9.27316C6.49679 9.27316 6.65796 9.11195 6.65796 8.91316C6.65796 8.71433 6.49679 8.55316 6.29796 8.55316C6.09913 8.55316 5.93796 8.71433 5.93796 8.91316C5.93796 9.11195 6.09913 9.27316 6.29796 9.27316Z" fill="url(#paint7_linear_6:1156)"/>
<path d="M4.37389 10.407C4.57271 10.407 4.73389 10.2457 4.73389 10.047C4.73389 9.84812 4.57271 9.68695 4.37389 9.68695C4.17506 9.68695 4.01389 9.84812 4.01389 10.047C4.01389 10.2457 4.17506 10.407 4.37389 10.407Z" fill="url(#paint8_linear_6:1156)"/>
<path d="M2.44964 11.3586C2.5456 11.3586 2.62343 11.2808 2.62343 11.1848C2.62343 11.0888 2.5456 11.011 2.44964 11.011C2.35364 11.011 2.27585 11.0888 2.27585 11.1848C2.27585 11.2808 2.35364 11.3586 2.44964 11.3586Z" fill="url(#paint9_linear_6:1156)"/>
<path d="M12.0704 8.46216C12.468 8.46216 12.7904 8.13981 12.7904 7.74216C12.7904 7.3445 12.468 7.02216 12.0704 7.02216C11.6728 7.02216 11.3504 7.3445 11.3504 7.74216C11.3504 8.13981 11.6728 8.46216 12.0704 8.46216Z" fill="url(#paint10_linear_6:1156)"/>
<path d="M10.1463 9.6001C10.5439 9.6001 10.8663 9.27775 10.8663 8.8801C10.8663 8.48244 10.5439 8.1601 10.1463 8.1601C9.74868 8.1601 9.42633 8.48244 9.42633 8.8801C9.42633 9.27775 9.74868 9.6001 10.1463 9.6001Z" fill="url(#paint11_linear_6:1156)"/>
<path d="M8.2221 10.738C8.61976 10.738 8.94211 10.4157 8.94211 10.018C8.94211 9.62038 8.61976 9.29803 8.2221 9.29803C7.82449 9.29803 7.50211 9.62038 7.50211 10.018C7.50211 10.4157 7.82449 10.738 8.2221 10.738Z" fill="url(#paint12_linear_6:1156)"/>
<path d="M6.29794 11.8718C6.69556 11.8718 7.01794 11.5495 7.01794 11.1518C7.01794 10.7542 6.69556 10.4318 6.29794 10.4318C5.90029 10.4318 5.57794 10.7542 5.57794 11.1518C5.57794 11.5495 5.90029 11.8718 6.29794 11.8718Z" fill="url(#paint13_linear_6:1156)"/>
<path d="M4.37389 12.6497C4.57271 12.6497 4.73389 12.4885 4.73389 12.2897C4.73389 12.0909 4.57271 11.9297 4.37389 11.9297C4.17506 11.9297 4.01389 12.0909 4.01389 12.2897C4.01389 12.4885 4.17506 12.6497 4.37389 12.6497Z" fill="url(#paint14_linear_6:1156)"/>
<path d="M2.44964 13.6014C2.5456 13.6014 2.62343 13.5236 2.62343 13.4276C2.62343 13.3316 2.5456 13.2538 2.44964 13.2538C2.35364 13.2538 2.27585 13.3316 2.27585 13.4276C2.27585 13.5236 2.35364 13.6014 2.44964 13.6014Z" fill="url(#paint15_linear_6:1156)"/>
<path d="M12.0704 10.7049C12.468 10.7049 12.7904 10.3825 12.7904 9.98489C12.7904 9.58728 12.468 9.26489 12.0704 9.26489C11.6728 9.26489 11.3504 9.58728 11.3504 9.98489C11.3504 10.3825 11.6728 10.7049 12.0704 10.7049Z" fill="url(#paint16_linear_6:1156)"/>
<path d="M10.1463 11.8428C10.5439 11.8428 10.8663 11.5204 10.8663 11.1228C10.8663 10.7252 10.5439 10.4028 10.1463 10.4028C9.74868 10.4028 9.42633 10.7252 9.42633 11.1228C9.42633 11.5204 9.74868 11.8428 10.1463 11.8428Z" fill="url(#paint17_linear_6:1156)"/>
<path d="M8.2221 12.9766C8.61976 12.9766 8.94211 12.6543 8.94211 12.2566C8.94211 11.859 8.61976 11.5366 8.2221 11.5366C7.82449 11.5366 7.50211 11.859 7.50211 12.2566C7.50211 12.6543 7.82449 12.9766 8.2221 12.9766Z" fill="url(#paint18_linear_6:1156)"/>
<path d="M6.29794 14.1145C6.69556 14.1145 7.01794 13.7922 7.01794 13.3945C7.01794 12.9969 6.69556 12.6745 6.29794 12.6745C5.90029 12.6745 5.57794 12.9969 5.57794 13.3945C5.57794 13.7922 5.90029 14.1145 6.29794 14.1145Z" fill="url(#paint19_linear_6:1156)"/>
<path d="M4.37389 14.8924C4.57271 14.8924 4.73389 14.7313 4.73389 14.5324C4.73389 14.3336 4.57271 14.1724 4.37389 14.1724C4.17506 14.1724 4.01389 14.3336 4.01389 14.5324C4.01389 14.7313 4.17506 14.8924 4.37389 14.8924Z" fill="url(#paint20_linear_6:1156)"/>
<path d="M2.44964 15.8442C2.5456 15.8442 2.62343 15.7664 2.62343 15.6704C2.62343 15.5744 2.5456 15.4966 2.44964 15.4966C2.35364 15.4966 2.27585 15.5744 2.27585 15.6704C2.27585 15.7664 2.35364 15.8442 2.44964 15.8442Z" fill="url(#paint21_linear_6:1156)"/>
<path d="M12.0704 12.5877C12.2692 12.5877 12.4304 12.4265 12.4304 12.2277C12.4304 12.0288 12.2692 11.8677 12.0704 11.8677C11.8716 11.8677 11.7104 12.0288 11.7104 12.2277C11.7104 12.4265 11.8716 12.5877 12.0704 12.5877Z" fill="url(#paint22_linear_6:1156)"/>
<path d="M10.1463 13.7215C10.3451 13.7215 10.5063 13.5603 10.5063 13.3615C10.5063 13.1626 10.3451 13.0015 10.1463 13.0015C9.94747 13.0015 9.78625 13.1626 9.78625 13.3615C9.78625 13.5603 9.94747 13.7215 10.1463 13.7215Z" fill="url(#paint23_linear_6:1156)"/>
<path d="M8.22206 14.8594C8.42089 14.8594 8.58206 14.6982 8.58206 14.4994C8.58206 14.3006 8.42089 14.1394 8.22206 14.1394C8.02323 14.1394 7.86206 14.3006 7.86206 14.4994C7.86206 14.6982 8.02323 14.8594 8.22206 14.8594Z" fill="url(#paint24_linear_6:1156)"/>
<path d="M6.29796 15.9973C6.49679 15.9973 6.65796 15.8361 6.65796 15.6373C6.65796 15.4385 6.49679 15.2773 6.29796 15.2773C6.09913 15.2773 5.93796 15.4385 5.93796 15.6373C5.93796 15.8361 6.09913 15.9973 6.29796 15.9973Z" fill="url(#paint25_linear_6:1156)"/>
<path d="M4.37384 16.949C4.46983 16.949 4.54763 16.8712 4.54763 16.7752C4.54763 16.6792 4.46983 16.6014 4.37384 16.6014C4.27788 16.6014 4.20004 16.6792 4.20004 16.7752C4.20004 16.8712 4.27788 16.949 4.37384 16.949Z" fill="url(#paint26_linear_6:1156)"/>
<path d="M2.44964 18.0869C2.5456 18.0869 2.62343 18.0091 2.62343 17.9131C2.62343 17.8172 2.5456 17.7393 2.44964 17.7393C2.35364 17.7393 2.27585 17.8172 2.27585 17.9131C2.27585 18.0091 2.35364 18.0869 2.44964 18.0869Z" fill="url(#paint27_linear_6:1156)"/>
<path d="M12.0703 14.64C12.1663 14.64 12.2441 14.5622 12.2441 14.4662C12.2441 14.3703 12.1663 14.2924 12.0703 14.2924C11.9743 14.2924 11.8965 14.3703 11.8965 14.4662C11.8965 14.5622 11.9743 14.64 12.0703 14.64Z" fill="url(#paint28_linear_6:1156)"/>
<path d="M10.1462 15.7779C10.2422 15.7779 10.32 15.7001 10.32 15.6041C10.32 15.5082 10.2422 15.4303 10.1462 15.4303C10.0503 15.4303 9.97244 15.5082 9.97244 15.6041C9.97244 15.7001 10.0503 15.7779 10.1462 15.7779Z" fill="url(#paint29_linear_6:1156)"/>
<path d="M8.22216 16.9159C8.31816 16.9159 8.39596 16.8381 8.39596 16.7421C8.39596 16.6461 8.31816 16.5683 8.22216 16.5683C8.12616 16.5683 8.04837 16.6461 8.04837 16.7421C8.04837 16.8381 8.12616 16.9159 8.22216 16.9159Z" fill="url(#paint30_linear_6:1156)"/>
<path d="M6.29794 18.0538C6.39394 18.0538 6.47173 17.976 6.47173 17.88C6.47173 17.784 6.39394 17.7062 6.29794 17.7062C6.20198 17.7062 6.12415 17.784 6.12415 17.88C6.12415 17.976 6.20198 18.0538 6.29794 18.0538Z" fill="url(#paint31_linear_6:1156)"/>
<path d="M4.37384 19.1917C4.46983 19.1917 4.54763 19.1139 4.54763 19.0179C4.54763 18.922 4.46983 18.8441 4.37384 18.8441C4.27788 18.8441 4.20004 18.922 4.20004 19.0179C4.20004 19.1139 4.27788 19.1917 4.37384 19.1917Z" fill="url(#paint32_linear_6:1156)"/>
<path d="M12.0703 16.8828C12.1663 16.8828 12.2441 16.805 12.2441 16.709C12.2441 16.613 12.1663 16.5352 12.0703 16.5352C11.9743 16.5352 11.8965 16.613 11.8965 16.709C11.8965 16.805 11.9743 16.8828 12.0703 16.8828Z" fill="url(#paint33_linear_6:1156)"/>
<path d="M10.1462 18.0208C10.2422 18.0208 10.32 17.943 10.32 17.847C10.32 17.751 10.2422 17.6732 10.1462 17.6732C10.0503 17.6732 9.97244 17.751 9.97244 17.847C9.97244 17.943 10.0503 18.0208 10.1462 18.0208Z" fill="url(#paint34_linear_6:1156)"/>
<path d="M8.22216 19.1587C8.31816 19.1587 8.39596 19.0809 8.39596 18.9849C8.39596 18.8889 8.31816 18.8111 8.22216 18.8111C8.12616 18.8111 8.04837 18.8889 8.04837 18.9849C8.04837 19.0809 8.12616 19.1587 8.22216 19.1587Z" fill="url(#paint35_linear_6:1156)"/>
<path d="M6.29794 20.2966C6.39394 20.2966 6.47173 20.2188 6.47173 20.1228C6.47173 20.0268 6.39394 19.949 6.29794 19.949C6.20198 19.949 6.12415 20.0268 6.12415 20.1228C6.12415 20.2188 6.20198 20.2966 6.29794 20.2966Z" fill="url(#paint36_linear_6:1156)"/>
<path d="M12.0703 19.1256C12.1663 19.1256 12.2441 19.0478 12.2441 18.9518C12.2441 18.8558 12.1663 18.778 12.0703 18.778C11.9743 18.778 11.8965 18.8558 11.8965 18.9518C11.8965 19.0478 11.9743 19.1256 12.0703 19.1256Z" fill="url(#paint37_linear_6:1156)"/>
<path d="M10.1462 20.2635C10.2422 20.2635 10.32 20.1857 10.32 20.0897C10.32 19.9937 10.2422 19.9159 10.1462 19.9159C10.0503 19.9159 9.97244 19.9937 9.97244 20.0897C9.97244 20.1857 10.0503 20.2635 10.1462 20.2635Z" fill="url(#paint38_linear_6:1156)"/>
<path d="M8.22216 21.4014C8.31816 21.4014 8.39596 21.3236 8.39596 21.2276C8.39596 21.1317 8.31816 21.0538 8.22216 21.0538C8.12616 21.0538 8.04837 21.1317 8.04837 21.2276C8.04837 21.3236 8.12616 21.4014 8.22216 21.4014Z" fill="url(#paint39_linear_6:1156)"/>
<path d="M12.0703 21.3683C12.1663 21.3683 12.2441 21.2905 12.2441 21.1945C12.2441 21.0985 12.1663 21.0207 12.0703 21.0207C11.9743 21.0207 11.8965 21.0985 11.8965 21.1945C11.8965 21.2905 11.9743 21.3683 12.0703 21.3683Z" fill="url(#paint40_linear_6:1156)"/>
<path d="M10.1462 22.5062C10.2422 22.5062 10.32 22.4284 10.32 22.3324C10.32 22.2365 10.2422 22.1586 10.1462 22.1586C10.0503 22.1586 9.97244 22.2365 9.97244 22.3324C9.97244 22.4284 10.0503 22.5062 10.1462 22.5062Z" fill="url(#paint41_linear_6:1156)"/>
<path d="M12.0703 23.6111C12.1663 23.6111 12.2441 23.5333 12.2441 23.4373C12.2441 23.3414 12.1663 23.2635 12.0703 23.2635C11.9743 23.2635 11.8965 23.3414 11.8965 23.4373C11.8965 23.5333 11.9743 23.6111 12.0703 23.6111Z" fill="url(#paint42_linear_6:1156)"/>
<path d="M21.6662 6.8731C21.7622 6.8731 21.84 6.7953 21.84 6.6993C21.84 6.60335 21.7622 6.52551 21.6662 6.52551C21.5702 6.52551 21.4924 6.60335 21.4924 6.6993C21.4924 6.7953 21.5702 6.8731 21.6662 6.8731Z" fill="url(#paint43_linear_6:1156)"/>
<path d="M17.8138 6.84423C17.9098 6.84423 17.9876 6.76644 17.9876 6.67044C17.9876 6.57444 17.9098 6.49664 17.8138 6.49664C17.7179 6.49664 17.64 6.57444 17.64 6.67044C17.64 6.76644 17.7179 6.84423 17.8138 6.84423Z" fill="url(#paint44_linear_6:1156)"/>
<path d="M19.7421 7.97802C19.8381 7.97802 19.9159 7.90018 19.9159 7.80422C19.9159 7.70822 19.8381 7.63043 19.7421 7.63043C19.6461 7.63043 19.5683 7.70822 19.5683 7.80422C19.5683 7.90018 19.6461 7.97802 19.7421 7.97802Z" fill="url(#paint45_linear_6:1156)"/>
<path d="M21.6662 9.11596C21.7622 9.11596 21.84 9.03812 21.84 8.94216C21.84 8.84616 21.7622 8.76837 21.6662 8.76837C21.5702 8.76837 21.4924 8.84616 21.4924 8.94216C21.4924 9.03812 21.5702 9.11596 21.6662 9.11596Z" fill="url(#paint46_linear_6:1156)"/>
<path d="M12.0414 5.8594C12.2402 5.8594 12.4014 5.69819 12.4014 5.4994C12.4014 5.30058 12.2402 5.1394 12.0414 5.1394C11.8425 5.1394 11.6814 5.30058 11.6814 5.4994C11.6814 5.69819 11.8425 5.8594 12.0414 5.8594Z" fill="url(#paint47_linear_6:1156)"/>
<path d="M13.9656 6.99734C14.1644 6.99734 14.3256 6.83613 14.3256 6.63734C14.3256 6.43852 14.1644 6.27734 13.9656 6.27734C13.7668 6.27734 13.6056 6.43852 13.6056 6.63734C13.6056 6.83613 13.7668 6.99734 13.9656 6.99734Z" fill="url(#paint48_linear_6:1156)"/>
<path d="M15.8898 8.13528C16.0886 8.13528 16.2498 7.97407 16.2498 7.77528C16.2498 7.57646 16.0886 7.41528 15.8898 7.41528C15.691 7.41528 15.5298 7.57646 15.5298 7.77528C15.5298 7.97407 15.691 8.13528 15.8898 8.13528Z" fill="url(#paint49_linear_6:1156)"/>
<path d="M17.8139 9.27316C18.0127 9.27316 18.1739 9.11195 18.1739 8.91316C18.1739 8.71433 18.0127 8.55316 17.8139 8.55316C17.6151 8.55316 17.4539 8.71433 17.4539 8.91316C17.4539 9.11195 17.6151 9.27316 17.8139 9.27316Z" fill="url(#paint50_linear_6:1156)"/>
<path d="M19.7421 10.407C19.9409 10.407 20.1021 10.2457 20.1021 10.047C20.1021 9.84812 19.9409 9.68695 19.7421 9.68695C19.5433 9.68695 19.3821 9.84812 19.3821 10.047C19.3821 10.2457 19.5433 10.407 19.7421 10.407Z" fill="url(#paint51_linear_6:1156)"/>
<path d="M21.6662 11.3586C21.7622 11.3586 21.84 11.2808 21.84 11.1848C21.84 11.0888 21.7622 11.011 21.6662 11.011C21.5702 11.011 21.4924 11.0888 21.4924 11.1848C21.4924 11.2808 21.5702 11.3586 21.6662 11.3586Z" fill="url(#paint52_linear_6:1156)"/>
<path d="M12.0414 8.46216C12.4391 8.46216 12.7614 8.13981 12.7614 7.74216C12.7614 7.3445 12.4391 7.02216 12.0414 7.02216C11.6438 7.02216 11.3214 7.3445 11.3214 7.74216C11.3214 8.13981 11.6438 8.46216 12.0414 8.46216Z" fill="url(#paint53_linear_6:1156)"/>
<path d="M13.9656 9.6001C14.3633 9.6001 14.6856 9.27775 14.6856 8.8801C14.6856 8.48244 14.3633 8.1601 13.9656 8.1601C13.568 8.1601 13.2456 8.48244 13.2456 8.8801C13.2456 9.27775 13.568 9.6001 13.9656 9.6001Z" fill="url(#paint54_linear_6:1156)"/>
<path d="M15.8897 10.738C16.2874 10.738 16.6097 10.4157 16.6097 10.018C16.6097 9.62038 16.2874 9.29803 15.8897 9.29803C15.4921 9.29803 15.1697 9.62038 15.1697 10.018C15.1697 10.4157 15.4921 10.738 15.8897 10.738Z" fill="url(#paint55_linear_6:1156)"/>
<path d="M17.8138 11.8718C18.2115 11.8718 18.5338 11.5495 18.5338 11.1518C18.5338 10.7542 18.2115 10.4318 17.8138 10.4318C17.4162 10.4318 17.0938 10.7542 17.0938 11.1518C17.0938 11.5495 17.4162 11.8718 17.8138 11.8718Z" fill="url(#paint56_linear_6:1156)"/>
<path d="M19.7421 12.6497C19.9409 12.6497 20.1021 12.4885 20.1021 12.2897C20.1021 12.0909 19.9409 11.9297 19.7421 11.9297C19.5433 11.9297 19.3821 12.0909 19.3821 12.2897C19.3821 12.4885 19.5433 12.6497 19.7421 12.6497Z" fill="url(#paint57_linear_6:1156)"/>
<path d="M21.6662 13.6014C21.7622 13.6014 21.84 13.5236 21.84 13.4276C21.84 13.3316 21.7622 13.2538 21.6662 13.2538C21.5702 13.2538 21.4924 13.3316 21.4924 13.4276C21.4924 13.5236 21.5702 13.6014 21.6662 13.6014Z" fill="url(#paint58_linear_6:1156)"/>
<path d="M12.0414 10.7049C12.4391 10.7049 12.7614 10.3825 12.7614 9.98489C12.7614 9.58728 12.4391 9.26489 12.0414 9.26489C11.6438 9.26489 11.3214 9.58728 11.3214 9.98489C11.3214 10.3825 11.6438 10.7049 12.0414 10.7049Z" fill="url(#paint59_linear_6:1156)"/>
<path d="M13.9656 11.8428C14.3633 11.8428 14.6856 11.5204 14.6856 11.1228C14.6856 10.7252 14.3633 10.4028 13.9656 10.4028C13.568 10.4028 13.2456 10.7252 13.2456 11.1228C13.2456 11.5204 13.568 11.8428 13.9656 11.8428Z" fill="url(#paint60_linear_6:1156)"/>
<path d="M17.8138 14.1145C18.2115 14.1145 18.5338 13.7922 18.5338 13.3945C18.5338 12.9969 18.2115 12.6745 17.8138 12.6745C17.4162 12.6745 17.0938 12.9969 17.0938 13.3945C17.0938 13.7922 17.4162 14.1145 17.8138 14.1145Z" fill="url(#paint61_linear_6:1156)"/>
<path d="M19.7421 14.8924C19.9409 14.8924 20.1021 14.7313 20.1021 14.5324C20.1021 14.3336 19.9409 14.1724 19.7421 14.1724C19.5433 14.1724 19.3821 14.3336 19.3821 14.5324C19.3821 14.7313 19.5433 14.8924 19.7421 14.8924Z" fill="url(#paint62_linear_6:1156)"/>
<path d="M21.6662 15.8442C21.7622 15.8442 21.84 15.7664 21.84 15.6704C21.84 15.5744 21.7622 15.4966 21.6662 15.4966C21.5702 15.4966 21.4924 15.5744 21.4924 15.6704C21.4924 15.7664 21.5702 15.8442 21.6662 15.8442Z" fill="url(#paint63_linear_6:1156)"/>
<path d="M12.0414 12.5877C12.2402 12.5877 12.4014 12.4265 12.4014 12.2277C12.4014 12.0288 12.2402 11.8677 12.0414 11.8677C11.8425 11.8677 11.6814 12.0288 11.6814 12.2277C11.6814 12.4265 11.8425 12.5877 12.0414 12.5877Z" fill="url(#paint64_linear_6:1156)"/>
<path d="M13.9656 13.7215C14.1644 13.7215 14.3256 13.5603 14.3256 13.3615C14.3256 13.1626 14.1644 13.0015 13.9656 13.0015C13.7668 13.0015 13.6056 13.1626 13.6056 13.3615C13.6056 13.5603 13.7668 13.7215 13.9656 13.7215Z" fill="url(#paint65_linear_6:1156)"/>
<path d="M15.8898 14.8594C16.0886 14.8594 16.2498 14.6982 16.2498 14.4994C16.2498 14.3006 16.0886 14.1394 15.8898 14.1394C15.691 14.1394 15.5298 14.3006 15.5298 14.4994C15.5298 14.6982 15.691 14.8594 15.8898 14.8594Z" fill="url(#paint66_linear_6:1156)"/>
<path d="M17.8139 15.9973C18.0127 15.9973 18.1739 15.8361 18.1739 15.6373C18.1739 15.4385 18.0127 15.2773 17.8139 15.2773C17.6151 15.2773 17.4539 15.4385 17.4539 15.6373C17.4539 15.8361 17.6151 15.9973 17.8139 15.9973Z" fill="url(#paint67_linear_6:1156)"/>
<path d="M19.7421 16.949C19.8381 16.949 19.9159 16.8712 19.9159 16.7752C19.9159 16.6792 19.8381 16.6014 19.7421 16.6014C19.6461 16.6014 19.5683 16.6792 19.5683 16.7752C19.5683 16.8712 19.6461 16.949 19.7421 16.949Z" fill="url(#paint68_linear_6:1156)"/>
<path d="M21.6662 18.0869C21.7622 18.0869 21.84 18.0091 21.84 17.9131C21.84 17.8172 21.7622 17.7393 21.6662 17.7393C21.5702 17.7393 21.4924 17.8172 21.4924 17.9131C21.4924 18.0091 21.5702 18.0869 21.6662 18.0869Z" fill="url(#paint69_linear_6:1156)"/>
<path d="M12.0415 14.64C12.1374 14.64 12.2153 14.5622 12.2153 14.4662C12.2153 14.3703 12.1374 14.2924 12.0415 14.2924C11.9455 14.2924 11.8677 14.3703 11.8677 14.4662C11.8677 14.5622 11.9455 14.64 12.0415 14.64Z" fill="url(#paint70_linear_6:1156)"/>
<path d="M13.9656 15.7779C14.0616 15.7779 14.1394 15.7001 14.1394 15.6041C14.1394 15.5082 14.0616 15.4303 13.9656 15.4303C13.8696 15.4303 13.7918 15.5082 13.7918 15.6041C13.7918 15.7001 13.8696 15.7779 13.9656 15.7779Z" fill="url(#paint71_linear_6:1156)"/>
<path d="M15.8897 16.9159C15.9857 16.9159 16.0635 16.8381 16.0635 16.7421C16.0635 16.6461 15.9857 16.5683 15.8897 16.5683C15.7937 16.5683 15.7159 16.6461 15.7159 16.7421C15.7159 16.8381 15.7937 16.9159 15.8897 16.9159Z" fill="url(#paint72_linear_6:1156)"/>
<path d="M17.8138 18.0538C17.9098 18.0538 17.9876 17.976 17.9876 17.88C17.9876 17.784 17.9098 17.7062 17.8138 17.7062C17.7179 17.7062 17.64 17.784 17.64 17.88C17.64 17.976 17.7179 18.0538 17.8138 18.0538Z" fill="url(#paint73_linear_6:1156)"/>
<path d="M19.7421 19.1917C19.8381 19.1917 19.9159 19.1139 19.9159 19.0179C19.9159 18.922 19.8381 18.8441 19.7421 18.8441C19.6461 18.8441 19.5683 18.922 19.5683 19.0179C19.5683 19.1139 19.6461 19.1917 19.7421 19.1917Z" fill="url(#paint74_linear_6:1156)"/>
<path d="M12.0415 16.8828C12.1374 16.8828 12.2153 16.805 12.2153 16.709C12.2153 16.613 12.1374 16.5352 12.0415 16.5352C11.9455 16.5352 11.8677 16.613 11.8677 16.709C11.8677 16.805 11.9455 16.8828 12.0415 16.8828Z" fill="url(#paint75_linear_6:1156)"/>
<path d="M13.9656 18.0208C14.0616 18.0208 14.1394 17.943 14.1394 17.847C14.1394 17.751 14.0616 17.6732 13.9656 17.6732C13.8696 17.6732 13.7918 17.751 13.7918 17.847C13.7918 17.943 13.8696 18.0208 13.9656 18.0208Z" fill="url(#paint76_linear_6:1156)"/>
<path d="M15.8897 19.1587C15.9857 19.1587 16.0635 19.0809 16.0635 18.9849C16.0635 18.8889 15.9857 18.8111 15.8897 18.8111C15.7937 18.8111 15.7159 18.8889 15.7159 18.9849C15.7159 19.0809 15.7937 19.1587 15.8897 19.1587Z" fill="url(#paint77_linear_6:1156)"/>
<path d="M17.8138 20.2966C17.9098 20.2966 17.9876 20.2188 17.9876 20.1228C17.9876 20.0268 17.9098 19.949 17.8138 19.949C17.7179 19.949 17.64 20.0268 17.64 20.1228C17.64 20.2188 17.7179 20.2966 17.8138 20.2966Z" fill="url(#paint78_linear_6:1156)"/>
<path d="M12.0415 19.1256C12.1374 19.1256 12.2153 19.0478 12.2153 18.9518C12.2153 18.8558 12.1374 18.778 12.0415 18.778C11.9455 18.778 11.8677 18.8558 11.8677 18.9518C11.8677 19.0478 11.9455 19.1256 12.0415 19.1256Z" fill="url(#paint79_linear_6:1156)"/>
<path d="M13.9656 20.2635C14.0616 20.2635 14.1394 20.1857 14.1394 20.0897C14.1394 19.9937 14.0616 19.9159 13.9656 19.9159C13.8696 19.9159 13.7918 19.9937 13.7918 20.0897C13.7918 20.1857 13.8696 20.2635 13.9656 20.2635Z" fill="url(#paint80_linear_6:1156)"/>
<path d="M15.8897 21.4014C15.9857 21.4014 16.0635 21.3236 16.0635 21.2276C16.0635 21.1317 15.9857 21.0538 15.8897 21.0538C15.7937 21.0538 15.7159 21.1317 15.7159 21.2276C15.7159 21.3236 15.7937 21.4014 15.8897 21.4014Z" fill="url(#paint81_linear_6:1156)"/>
<path d="M12.0415 21.3683C12.1374 21.3683 12.2153 21.2905 12.2153 21.1945C12.2153 21.0985 12.1374 21.0207 12.0415 21.0207C11.9455 21.0207 11.8677 21.0985 11.8677 21.1945C11.8677 21.2905 11.9455 21.3683 12.0415 21.3683Z" fill="url(#paint82_linear_6:1156)"/>
<path d="M13.9656 22.5062C14.0616 22.5062 14.1394 22.4284 14.1394 22.3324C14.1394 22.2365 14.0616 22.1586 13.9656 22.1586C13.8696 22.1586 13.7918 22.2365 13.7918 22.3324C13.7918 22.4284 13.8696 22.5062 13.9656 22.5062Z" fill="url(#paint83_linear_6:1156)"/>
<path d="M12.0415 23.6111C12.1374 23.6111 12.2153 23.5333 12.2153 23.4373C12.2153 23.3414 12.1374 23.2635 12.0415 23.2635C11.9455 23.2635 11.8677 23.3414 11.8677 23.4373C11.8677 23.5333 11.9455 23.6111 12.0415 23.6111Z" fill="url(#paint84_linear_6:1156)"/>
<path d="M11.8428 0.761405C11.9388 0.761405 12.0166 0.683611 12.0166 0.587611C12.0166 0.491652 11.9388 0.413818 11.8428 0.413818C11.7468 0.413818 11.669 0.491652 11.669 0.587611C11.669 0.683611 11.7468 0.761405 11.8428 0.761405Z" fill="url(#paint85_linear_6:1156)"/>
<path d="M9.91868 1.89928C10.0146 1.89928 10.0924 1.82149 10.0924 1.72549C10.0924 1.62953 10.0146 1.5517 9.91868 1.5517C9.82268 1.5517 9.74484 1.62953 9.74484 1.72549C9.74484 1.82149 9.82268 1.89928 9.91868 1.89928Z" fill="url(#paint86_linear_6:1156)"/>
<path d="M7.99444 3.03722C8.09044 3.03722 8.16823 2.95943 8.16823 2.86343C8.16823 2.76747 8.09044 2.68964 7.99444 2.68964C7.89848 2.68964 7.82065 2.76747 7.82065 2.86343C7.82065 2.95943 7.89848 3.03722 7.99444 3.03722Z" fill="url(#paint87_linear_6:1156)"/>
<path d="M6.07034 4.17516C6.1663 4.17516 6.24413 4.09737 6.24413 4.00137C6.24413 3.90541 6.1663 3.82758 6.07034 3.82758C5.97434 3.82758 5.89655 3.90541 5.89655 4.00137C5.89655 4.09737 5.97434 4.17516 6.07034 4.17516Z" fill="url(#paint88_linear_6:1156)"/>
<path d="M4.14624 5.3131C4.24219 5.3131 4.32003 5.23531 4.32003 5.13931C4.32003 5.04335 4.24219 4.96552 4.14624 4.96552C4.05024 4.96552 3.97244 5.04335 3.97244 5.13931C3.97244 5.23531 4.05024 5.3131 4.14624 5.3131Z" fill="url(#paint89_linear_6:1156)"/>
<path d="M11.8428 3.0042C11.9388 3.0042 12.0166 2.92637 12.0166 2.83041C12.0166 2.73441 11.9388 2.65662 11.8428 2.65662C11.7468 2.65662 11.669 2.73441 11.669 2.83041C11.669 2.92637 11.7468 3.0042 11.8428 3.0042Z" fill="url(#paint90_linear_6:1156)"/>
<path d="M9.91868 4.14214C10.0146 4.14214 10.0924 4.06431 10.0924 3.96835C10.0924 3.87235 10.0146 3.79456 9.91868 3.79456C9.82268 3.79456 9.74484 3.87235 9.74484 3.96835C9.74484 4.06431 9.82268 4.14214 9.91868 4.14214Z" fill="url(#paint91_linear_6:1156)"/>
<path d="M7.99444 5.28008C8.09044 5.28008 8.16823 5.20225 8.16823 5.10629C8.16823 5.01029 8.09044 4.9325 7.99444 4.9325C7.89848 4.9325 7.82065 5.01029 7.82065 5.10629C7.82065 5.20225 7.89848 5.28008 7.99444 5.28008Z" fill="url(#paint92_linear_6:1156)"/>
<path d="M11.8138 0.761405C11.9098 0.761405 11.9876 0.683611 11.9876 0.587611C11.9876 0.491652 11.9098 0.413818 11.8138 0.413818C11.7179 0.413818 11.64 0.491652 11.64 0.587611C11.64 0.683611 11.7179 0.761405 11.8138 0.761405Z" fill="url(#paint93_linear_6:1156)"/>
<path d="M13.7379 1.89928C13.8339 1.89928 13.9117 1.82149 13.9117 1.72549C13.9117 1.62953 13.8339 1.5517 13.7379 1.5517C13.642 1.5517 13.5641 1.62953 13.5641 1.72549C13.5641 1.82149 13.642 1.89928 13.7379 1.89928Z" fill="url(#paint94_linear_6:1156)"/>
<path d="M15.6622 3.03722C15.7581 3.03722 15.836 2.95943 15.836 2.86343C15.836 2.76747 15.7581 2.68964 15.6622 2.68964C15.5662 2.68964 15.4884 2.76747 15.4884 2.86343C15.4884 2.95943 15.5662 3.03722 15.6622 3.03722Z" fill="url(#paint95_linear_6:1156)"/>
<path d="M17.5862 4.17516C17.6822 4.17516 17.76 4.09737 17.76 4.00137C17.76 3.90541 17.6822 3.82758 17.5862 3.82758C17.4902 3.82758 17.4124 3.90541 17.4124 4.00137C17.4124 4.09737 17.4902 4.17516 17.5862 4.17516Z" fill="url(#paint96_linear_6:1156)"/>
<path d="M19.5145 5.3131C19.6105 5.3131 19.6883 5.23531 19.6883 5.13931C19.6883 5.04335 19.6105 4.96552 19.5145 4.96552C19.4185 4.96552 19.3407 5.04335 19.3407 5.13931C19.3407 5.23531 19.4185 5.3131 19.5145 5.3131Z" fill="url(#paint97_linear_6:1156)"/>
<path d="M11.8138 3.0042C11.9098 3.0042 11.9876 2.92637 11.9876 2.83041C11.9876 2.73441 11.9098 2.65662 11.8138 2.65662C11.7179 2.65662 11.64 2.73441 11.64 2.83041C11.64 2.92637 11.7179 3.0042 11.8138 3.0042Z" fill="url(#paint98_linear_6:1156)"/>
<path d="M13.7379 4.14214C13.8339 4.14214 13.9117 4.06431 13.9117 3.96835C13.9117 3.87235 13.8339 3.79456 13.7379 3.79456C13.642 3.79456 13.5641 3.87235 13.5641 3.96835C13.5641 4.06431 13.642 4.14214 13.7379 4.14214Z" fill="url(#paint99_linear_6:1156)"/>
<path d="M15.6622 5.28008C15.7581 5.28008 15.836 5.20225 15.836 5.10629C15.836 5.01029 15.7581 4.9325 15.6622 4.9325C15.5662 4.9325 15.4884 5.01029 15.4884 5.10629C15.4884 5.20225 15.5662 5.28008 15.6622 5.28008Z" fill="url(#paint100_linear_6:1156)"/>
<path d="M16.0303 12.72C16.428 12.72 16.7503 12.3977 16.7503 12C16.7503 11.6024 16.428 11.28 16.0303 11.28C15.6327 11.28 15.3103 11.6024 15.3103 12C15.3103 12.3977 15.6327 12.72 16.0303 12.72Z" fill="url(#paint101_linear_6:1156)"/>
<defs>
<linearGradient id="paint0_linear_6:1156" x1="2.54523" y1="6.31696" x2="2.31061" y2="6.96" gradientUnits="userSpaceOnUse">
<stop stop-color="#F16821"/>
<stop offset="1" stop-color="#FAB95B"/>
</linearGradient>
<linearGradient id="paint1_linear_6:1156" x1="6.39353" y1="6.28809" x2="6.1589" y2="6.93113" gradientUnits="userSpaceOnUse">
<stop stop-color="#F16821"/>
<stop offset="1" stop-color="#FAB95B"/>
</linearGradient>
<linearGradient id="paint2_linear_6:1156" x1="4.46942" y1="7.42188" x2="4.2348" y2="8.06492" gradientUnits="userSpaceOnUse">
<stop stop-color="#F16821"/>
<stop offset="1" stop-color="#FAB95B"/>
</linearGradient>
<linearGradient id="paint3_linear_6:1156" x1="2.54523" y1="8.55982" x2="2.31061" y2="9.20285" gradientUnits="userSpaceOnUse">
<stop stop-color="#F16821"/>
<stop offset="1" stop-color="#FAB95B"/>
</linearGradient>
<linearGradient id="paint4_linear_6:1156" x1="12.2684" y1="4.70741" x2="11.7824" y2="6.0394" gradientUnits="userSpaceOnUse">
<stop stop-color="#F16821"/>
<stop offset="1" stop-color="#FAB95B"/>
</linearGradient>
<linearGradient id="paint5_linear_6:1156" x1="10.3443" y1="5.84534" x2="9.85825" y2="7.17734" gradientUnits="userSpaceOnUse">
<stop stop-color="#F16821"/>
<stop offset="1" stop-color="#FAB95B"/>
</linearGradient>
<linearGradient id="paint6_linear_6:1156" x1="8.42006" y1="6.98328" x2="7.93406" y2="8.31528" gradientUnits="userSpaceOnUse">
<stop stop-color="#F16821"/>
<stop offset="1" stop-color="#FAB95B"/>
</linearGradient>
<linearGradient id="paint7_linear_6:1156" x1="6.49596" y1="8.12116" x2="6.00996" y2="9.45316" gradientUnits="userSpaceOnUse">
<stop stop-color="#F16821"/>
<stop offset="1" stop-color="#FAB95B"/>
</linearGradient>
<linearGradient id="paint8_linear_6:1156" x1="4.57189" y1="9.25495" x2="4.08589" y2="10.587" gradientUnits="userSpaceOnUse">
<stop stop-color="#F16821"/>
<stop offset="1" stop-color="#FAB95B"/>
</linearGradient>
<linearGradient id="paint9_linear_6:1156" x1="2.54523" y1="10.8025" x2="2.31061" y2="11.4455" gradientUnits="userSpaceOnUse">
<stop stop-color="#F16821"/>
<stop offset="1" stop-color="#FAB95B"/>
</linearGradient>
<linearGradient id="paint10_linear_6:1156" x1="12.4664" y1="6.15816" x2="11.4944" y2="8.82216" gradientUnits="userSpaceOnUse">
<stop stop-color="#F16821"/>
<stop offset="1" stop-color="#FAB95B"/>
</linearGradient>
<linearGradient id="paint11_linear_6:1156" x1="10.5423" y1="7.29609" x2="9.57033" y2="9.9601" gradientUnits="userSpaceOnUse">
<stop stop-color="#F16821"/>
<stop offset="1" stop-color="#FAB95B"/>
</linearGradient>
<linearGradient id="paint12_linear_6:1156" x1="8.61811" y1="8.43403" x2="7.64611" y2="11.098" gradientUnits="userSpaceOnUse">
<stop stop-color="#F16821"/>
<stop offset="1" stop-color="#FAB95B"/>
</linearGradient>
<linearGradient id="paint13_linear_6:1156" x1="6.69394" y1="9.56782" x2="5.72194" y2="12.2318" gradientUnits="userSpaceOnUse">
<stop stop-color="#F16821"/>
<stop offset="1" stop-color="#FAB95B"/>
</linearGradient>
<linearGradient id="paint14_linear_6:1156" x1="4.57189" y1="11.4977" x2="4.08589" y2="12.8297" gradientUnits="userSpaceOnUse">
<stop stop-color="#F16821"/>
<stop offset="1" stop-color="#FAB95B"/>
</linearGradient>
<linearGradient id="paint15_linear_6:1156" x1="2.54523" y1="13.0452" x2="2.31061" y2="13.6883" gradientUnits="userSpaceOnUse">
<stop stop-color="#F16821"/>
<stop offset="1" stop-color="#FAB95B"/>
</linearGradient>
<linearGradient id="paint16_linear_6:1156" x1="12.4664" y1="8.40089" x2="11.4944" y2="11.0649" gradientUnits="userSpaceOnUse">
<stop stop-color="#F16821"/>
<stop offset="1" stop-color="#FAB95B"/>
</linearGradient>
<linearGradient id="paint17_linear_6:1156" x1="10.5423" y1="9.53877" x2="9.57033" y2="12.2028" gradientUnits="userSpaceOnUse">
<stop stop-color="#F16821"/>
<stop offset="1" stop-color="#FAB95B"/>
</linearGradient>
<linearGradient id="paint18_linear_6:1156" x1="8.61811" y1="10.6726" x2="7.64611" y2="13.3366" gradientUnits="userSpaceOnUse">
<stop stop-color="#F16821"/>
<stop offset="1" stop-color="#FAB95B"/>
</linearGradient>
<linearGradient id="paint19_linear_6:1156" x1="6.69394" y1="11.8105" x2="5.72194" y2="14.4745" gradientUnits="userSpaceOnUse">
<stop stop-color="#F16821"/>
<stop offset="1" stop-color="#FAB95B"/>
</linearGradient>
<linearGradient id="paint20_linear_6:1156" x1="4.57189" y1="13.7404" x2="4.08589" y2="15.0724" gradientUnits="userSpaceOnUse">
<stop stop-color="#F16821"/>
<stop offset="1" stop-color="#FAB95B"/>
</linearGradient>
<linearGradient id="paint21_linear_6:1156" x1="2.54523" y1="15.2881" x2="2.31061" y2="15.9311" gradientUnits="userSpaceOnUse">
<stop stop-color="#F16821"/>
<stop offset="1" stop-color="#FAB95B"/>
</linearGradient>
<linearGradient id="paint22_linear_6:1156" x1="12.2684" y1="11.4357" x2="11.7824" y2="12.7677" gradientUnits="userSpaceOnUse">
<stop stop-color="#F16821"/>
<stop offset="1" stop-color="#FAB95B"/>
</linearGradient>
<linearGradient id="paint23_linear_6:1156" x1="10.3443" y1="12.5695" x2="9.85825" y2="13.9015" gradientUnits="userSpaceOnUse">
<stop stop-color="#F16821"/>
<stop offset="1" stop-color="#FAB95B"/>
</linearGradient>
<linearGradient id="paint24_linear_6:1156" x1="8.42006" y1="13.7074" x2="7.93406" y2="15.0394" gradientUnits="userSpaceOnUse">
<stop stop-color="#F16821"/>
<stop offset="1" stop-color="#FAB95B"/>
</linearGradient>
<linearGradient id="paint25_linear_6:1156" x1="6.49596" y1="14.8453" x2="6.00995" y2="16.1773" gradientUnits="userSpaceOnUse">
<stop stop-color="#F16821"/>
<stop offset="1" stop-color="#FAB95B"/>
</linearGradient>
<linearGradient id="paint26_linear_6:1156" x1="4.46942" y1="16.3929" x2="4.2348" y2="17.0359" gradientUnits="userSpaceOnUse">
<stop stop-color="#F16821"/>
<stop offset="1" stop-color="#FAB95B"/>
</linearGradient>
<linearGradient id="paint27_linear_6:1156" x1="2.54523" y1="17.5308" x2="2.31061" y2="18.1738" gradientUnits="userSpaceOnUse">
<stop stop-color="#F16821"/>
<stop offset="1" stop-color="#FAB95B"/>
</linearGradient>
<linearGradient id="paint28_linear_6:1156" x1="12.1659" y1="14.0839" x2="11.9313" y2="14.7269" gradientUnits="userSpaceOnUse">
<stop stop-color="#F16821"/>
<stop offset="1" stop-color="#FAB95B"/>
</linearGradient>
<linearGradient id="paint29_linear_6:1156" x1="10.2418" y1="15.2218" x2="10.0072" y2="15.8648" gradientUnits="userSpaceOnUse">
<stop stop-color="#F16821"/>
<stop offset="1" stop-color="#FAB95B"/>
</linearGradient>
<linearGradient id="paint30_linear_6:1156" x1="8.31775" y1="16.3597" x2="8.08313" y2="17.0027" gradientUnits="userSpaceOnUse">
<stop stop-color="#F16821"/>
<stop offset="1" stop-color="#FAB95B"/>
</linearGradient>
<linearGradient id="paint31_linear_6:1156" x1="6.39353" y1="17.4977" x2="6.15891" y2="18.1407" gradientUnits="userSpaceOnUse">
<stop stop-color="#F16821"/>
<stop offset="1" stop-color="#FAB95B"/>
</linearGradient>
<linearGradient id="paint32_linear_6:1156" x1="4.46942" y1="18.6356" x2="4.2348" y2="19.2786" gradientUnits="userSpaceOnUse">
<stop stop-color="#F16821"/>
<stop offset="1" stop-color="#FAB95B"/>
</linearGradient>
<linearGradient id="paint33_linear_6:1156" x1="12.1659" y1="16.3267" x2="11.9313" y2="16.9697" gradientUnits="userSpaceOnUse">
<stop stop-color="#F16821"/>
<stop offset="1" stop-color="#FAB95B"/>
</linearGradient>
<linearGradient id="paint34_linear_6:1156" x1="10.2418" y1="17.4646" x2="10.0072" y2="18.1077" gradientUnits="userSpaceOnUse">
<stop stop-color="#F16821"/>
<stop offset="1" stop-color="#FAB95B"/>
</linearGradient>
<linearGradient id="paint35_linear_6:1156" x1="8.31775" y1="18.6025" x2="8.08313" y2="19.2456" gradientUnits="userSpaceOnUse">
<stop stop-color="#F16821"/>
<stop offset="1" stop-color="#FAB95B"/>
</linearGradient>
<linearGradient id="paint36_linear_6:1156" x1="6.39353" y1="19.7405" x2="6.1589" y2="20.3835" gradientUnits="userSpaceOnUse">
<stop stop-color="#F16821"/>
<stop offset="1" stop-color="#FAB95B"/>
</linearGradient>
<linearGradient id="paint37_linear_6:1156" x1="12.1659" y1="18.5694" x2="11.9313" y2="19.2125" gradientUnits="userSpaceOnUse">
<stop stop-color="#F16821"/>
<stop offset="1" stop-color="#FAB95B"/>
</linearGradient>
<linearGradient id="paint38_linear_6:1156" x1="10.2418" y1="19.7073" x2="10.0072" y2="20.3504" gradientUnits="userSpaceOnUse">
<stop stop-color="#F16821"/>
<stop offset="1" stop-color="#FAB95B"/>
</linearGradient>
<linearGradient id="paint39_linear_6:1156" x1="8.31775" y1="20.8453" x2="8.08313" y2="21.4883" gradientUnits="userSpaceOnUse">
<stop stop-color="#F16821"/>
<stop offset="1" stop-color="#FAB95B"/>
</linearGradient>
<linearGradient id="paint40_linear_6:1156" x1="12.1659" y1="20.8121" x2="11.9313" y2="21.4552" gradientUnits="userSpaceOnUse">
<stop stop-color="#F16821"/>
<stop offset="1" stop-color="#FAB95B"/>
</linearGradient>
<linearGradient id="paint41_linear_6:1156" x1="10.2418" y1="21.9501" x2="10.0072" y2="22.5931" gradientUnits="userSpaceOnUse">
<stop stop-color="#F16821"/>
<stop offset="1" stop-color="#FAB95B"/>
</linearGradient>
<linearGradient id="paint42_linear_6:1156" x1="12.1659" y1="23.055" x2="11.9313" y2="23.698" gradientUnits="userSpaceOnUse">
<stop stop-color="#F16821"/>
<stop offset="1" stop-color="#FAB95B"/>
</linearGradient>
<linearGradient id="paint43_linear_6:1156" x1="21.7618" y1="6.31696" x2="21.5272" y2="6.96001" gradientUnits="userSpaceOnUse">
<stop stop-color="#F16821"/>
<stop offset="1" stop-color="#FAB95B"/>
</linearGradient>
<linearGradient id="paint44_linear_6:1156" x1="17.9094" y1="6.28809" x2="17.6748" y2="6.93113" gradientUnits="userSpaceOnUse">
<stop stop-color="#F16821"/>
<stop offset="1" stop-color="#FAB95B"/>
</linearGradient>
<linearGradient id="paint45_linear_6:1156" x1="19.8376" y1="7.42188" x2="19.603" y2="8.06491" gradientUnits="userSpaceOnUse">
<stop stop-color="#F16821"/>
<stop offset="1" stop-color="#FAB95B"/>
</linearGradient>
<linearGradient id="paint46_linear_6:1156" x1="21.7618" y1="8.55982" x2="21.5272" y2="9.20287" gradientUnits="userSpaceOnUse">
<stop stop-color="#F16821"/>
<stop offset="1" stop-color="#FAB95B"/>
</linearGradient>
<linearGradient id="paint47_linear_6:1156" x1="12.2394" y1="4.70741" x2="11.7534" y2="6.0394" gradientUnits="userSpaceOnUse">
<stop stop-color="#F16821"/>
<stop offset="1" stop-color="#FAB95B"/>
</linearGradient>
<linearGradient id="paint48_linear_6:1156" x1="14.1636" y1="5.84534" x2="13.6776" y2="7.17734" gradientUnits="userSpaceOnUse">
<stop stop-color="#F16821"/>
<stop offset="1" stop-color="#FAB95B"/>
</linearGradient>
<linearGradient id="paint49_linear_6:1156" x1="16.0878" y1="6.98328" x2="15.6018" y2="8.31528" gradientUnits="userSpaceOnUse">
<stop stop-color="#F16821"/>
<stop offset="1" stop-color="#FAB95B"/>
</linearGradient>
<linearGradient id="paint50_linear_6:1156" x1="18.0119" y1="8.12116" x2="17.5259" y2="9.45316" gradientUnits="userSpaceOnUse">
<stop stop-color="#F16821"/>
<stop offset="1" stop-color="#FAB95B"/>
</linearGradient>
<linearGradient id="paint51_linear_6:1156" x1="19.9401" y1="9.25495" x2="19.4541" y2="10.587" gradientUnits="userSpaceOnUse">
<stop stop-color="#F16821"/>
<stop offset="1" stop-color="#FAB95B"/>
</linearGradient>
<linearGradient id="paint52_linear_6:1156" x1="21.7618" y1="10.8025" x2="21.5272" y2="11.4455" gradientUnits="userSpaceOnUse">
<stop stop-color="#F16821"/>
<stop offset="1" stop-color="#FAB95B"/>
</linearGradient>
<linearGradient id="paint53_linear_6:1156" x1="12.4374" y1="6.15816" x2="11.4654" y2="8.82216" gradientUnits="userSpaceOnUse">
<stop stop-color="#F16821"/>
<stop offset="1" stop-color="#FAB95B"/>
</linearGradient>
<linearGradient id="paint54_linear_6:1156" x1="14.3616" y1="7.29609" x2="13.3896" y2="9.9601" gradientUnits="userSpaceOnUse">
<stop stop-color="#F16821"/>
<stop offset="1" stop-color="#FAB95B"/>
</linearGradient>
<linearGradient id="paint55_linear_6:1156" x1="16.2857" y1="8.43403" x2="15.3137" y2="11.098" gradientUnits="userSpaceOnUse">
<stop stop-color="#F16821"/>
<stop offset="1" stop-color="#FAB95B"/>
</linearGradient>
<linearGradient id="paint56_linear_6:1156" x1="18.2098" y1="9.56782" x2="17.2378" y2="12.2318" gradientUnits="userSpaceOnUse">
<stop stop-color="#F16821"/>
<stop offset="1" stop-color="#FAB95B"/>
</linearGradient>
<linearGradient id="paint57_linear_6:1156" x1="19.9401" y1="11.4977" x2="19.4541" y2="12.8297" gradientUnits="userSpaceOnUse">
<stop stop-color="#F16821"/>
<stop offset="1" stop-color="#FAB95B"/>
</linearGradient>
<linearGradient id="paint58_linear_6:1156" x1="21.7618" y1="13.0452" x2="21.5272" y2="13.6883" gradientUnits="userSpaceOnUse">
<stop stop-color="#F16821"/>
<stop offset="1" stop-color="#FAB95B"/>
</linearGradient>
<linearGradient id="paint59_linear_6:1156" x1="12.4374" y1="8.40089" x2="11.4654" y2="11.0649" gradientUnits="userSpaceOnUse">
<stop stop-color="#F16821"/>
<stop offset="1" stop-color="#FAB95B"/>
</linearGradient>
<linearGradient id="paint60_linear_6:1156" x1="14.3616" y1="9.53877" x2="13.3896" y2="12.2028" gradientUnits="userSpaceOnUse">
<stop stop-color="#F16821"/>
<stop offset="1" stop-color="#FAB95B"/>
</linearGradient>
<linearGradient id="paint61_linear_6:1156" x1="18.2098" y1="11.8105" x2="17.2378" y2="14.4745" gradientUnits="userSpaceOnUse">
<stop stop-color="#F16821"/>
<stop offset="1" stop-color="#FAB95B"/>
</linearGradient>
<linearGradient id="paint62_linear_6:1156" x1="19.9401" y1="13.7404" x2="19.4541" y2="15.0724" gradientUnits="userSpaceOnUse">
<stop stop-color="#F16821"/>
<stop offset="1" stop-color="#FAB95B"/>
</linearGradient>
<linearGradient id="paint63_linear_6:1156" x1="21.7618" y1="15.2881" x2="21.5272" y2="15.9311" gradientUnits="userSpaceOnUse">
<stop stop-color="#F16821"/>
<stop offset="1" stop-color="#FAB95B"/>
</linearGradient>
<linearGradient id="paint64_linear_6:1156" x1="12.2394" y1="11.4357" x2="11.7534" y2="12.7677" gradientUnits="userSpaceOnUse">
<stop stop-color="#F16821"/>
<stop offset="1" stop-color="#FAB95B"/>
</linearGradient>
<linearGradient id="paint65_linear_6:1156" x1="14.1636" y1="12.5695" x2="13.6776" y2="13.9015" gradientUnits="userSpaceOnUse">
<stop stop-color="#F16821"/>
<stop offset="1" stop-color="#FAB95B"/>
</linearGradient>
<linearGradient id="paint66_linear_6:1156" x1="16.0878" y1="13.7074" x2="15.6018" y2="15.0394" gradientUnits="userSpaceOnUse">
<stop stop-color="#F16821"/>
<stop offset="1" stop-color="#FAB95B"/>
</linearGradient>
<linearGradient id="paint67_linear_6:1156" x1="18.0119" y1="14.8453" x2="17.5259" y2="16.1773" gradientUnits="userSpaceOnUse">
<stop stop-color="#F16821"/>
<stop offset="1" stop-color="#FAB95B"/>
</linearGradient>
<linearGradient id="paint68_linear_6:1156" x1="19.8376" y1="16.3929" x2="19.603" y2="17.0359" gradientUnits="userSpaceOnUse">
<stop stop-color="#F16821"/>
<stop offset="1" stop-color="#FAB95B"/>
</linearGradient>
<linearGradient id="paint69_linear_6:1156" x1="21.7618" y1="17.5308" x2="21.5272" y2="18.1738" gradientUnits="userSpaceOnUse">
<stop stop-color="#F16821"/>
<stop offset="1" stop-color="#FAB95B"/>
</linearGradient>
<linearGradient id="paint70_linear_6:1156" x1="12.1371" y1="14.0839" x2="11.9024" y2="14.7269" gradientUnits="userSpaceOnUse">
<stop stop-color="#F16821"/>
<stop offset="1" stop-color="#FAB95B"/>
</linearGradient>
<linearGradient id="paint71_linear_6:1156" x1="14.0612" y1="15.2218" x2="13.8265" y2="15.8648" gradientUnits="userSpaceOnUse">
<stop stop-color="#F16821"/>
<stop offset="1" stop-color="#FAB95B"/>
</linearGradient>
<linearGradient id="paint72_linear_6:1156" x1="15.9853" y1="16.3597" x2="15.7506" y2="17.0027" gradientUnits="userSpaceOnUse">
<stop stop-color="#F16821"/>
<stop offset="1" stop-color="#FAB95B"/>
</linearGradient>
<linearGradient id="paint73_linear_6:1156" x1="17.9094" y1="17.4977" x2="17.6748" y2="18.1407" gradientUnits="userSpaceOnUse">
<stop stop-color="#F16821"/>
<stop offset="1" stop-color="#FAB95B"/>
</linearGradient>
<linearGradient id="paint74_linear_6:1156" x1="19.8376" y1="18.6356" x2="19.603" y2="19.2786" gradientUnits="userSpaceOnUse">
<stop stop-color="#F16821"/>
<stop offset="1" stop-color="#FAB95B"/>
</linearGradient>
<linearGradient id="paint75_linear_6:1156" x1="12.1371" y1="16.3267" x2="11.9024" y2="16.9697" gradientUnits="userSpaceOnUse">
<stop stop-color="#F16821"/>
<stop offset="1" stop-color="#FAB95B"/>
</linearGradient>
<linearGradient id="paint76_linear_6:1156" x1="14.0612" y1="17.4646" x2="13.8265" y2="18.1077" gradientUnits="userSpaceOnUse">
<stop stop-color="#F16821"/>
<stop offset="1" stop-color="#FAB95B"/>
</linearGradient>
<linearGradient id="paint77_linear_6:1156" x1="15.9853" y1="18.6025" x2="15.7506" y2="19.2456" gradientUnits="userSpaceOnUse">
<stop stop-color="#F16821"/>
<stop offset="1" stop-color="#FAB95B"/>
</linearGradient>
<linearGradient id="paint78_linear_6:1156" x1="17.9094" y1="19.7405" x2="17.6748" y2="20.3835" gradientUnits="userSpaceOnUse">
<stop stop-color="#F16821"/>
<stop offset="1" stop-color="#FAB95B"/>
</linearGradient>
<linearGradient id="paint79_linear_6:1156" x1="12.1371" y1="18.5694" x2="11.9024" y2="19.2125" gradientUnits="userSpaceOnUse">
<stop stop-color="#F16821"/>
<stop offset="1" stop-color="#FAB95B"/>
</linearGradient>
<linearGradient id="paint80_linear_6:1156" x1="14.0612" y1="19.7073" x2="13.8265" y2="20.3504" gradientUnits="userSpaceOnUse">
<stop stop-color="#F16821"/>
<stop offset="1" stop-color="#FAB95B"/>
</linearGradient>
<linearGradient id="paint81_linear_6:1156" x1="15.9853" y1="20.8453" x2="15.7506" y2="21.4883" gradientUnits="userSpaceOnUse">
<stop stop-color="#F16821"/>
<stop offset="1" stop-color="#FAB95B"/>
</linearGradient>
<linearGradient id="paint82_linear_6:1156" x1="12.1371" y1="20.8121" x2="11.9024" y2="21.4552" gradientUnits="userSpaceOnUse">
<stop stop-color="#F16821"/>
<stop offset="1" stop-color="#FAB95B"/>
</linearGradient>
<linearGradient id="paint83_linear_6:1156" x1="14.0612" y1="21.9501" x2="13.8265" y2="22.5931" gradientUnits="userSpaceOnUse">
<stop stop-color="#F16821"/>
<stop offset="1" stop-color="#FAB95B"/>
</linearGradient>
<linearGradient id="paint84_linear_6:1156" x1="12.1371" y1="23.055" x2="11.9024" y2="23.698" gradientUnits="userSpaceOnUse">
<stop stop-color="#F16821"/>
<stop offset="1" stop-color="#FAB95B"/>
</linearGradient>
<linearGradient id="paint85_linear_6:1156" x1="11.9384" y1="0.205267" x2="11.7038" y2="0.848301" gradientUnits="userSpaceOnUse">
<stop stop-color="#F16821"/>
<stop offset="1" stop-color="#FAB95B"/>
</linearGradient>
<linearGradient id="paint86_linear_6:1156" x1="10.0142" y1="1.34315" x2="9.7796" y2="1.98618" gradientUnits="userSpaceOnUse">
<stop stop-color="#F16821"/>
<stop offset="1" stop-color="#FAB95B"/>
</linearGradient>
<linearGradient id="paint87_linear_6:1156" x1="8.09003" y1="2.48108" x2="7.85541" y2="3.12412" gradientUnits="userSpaceOnUse">
<stop stop-color="#F16821"/>
<stop offset="1" stop-color="#FAB95B"/>
</linearGradient>
<linearGradient id="paint88_linear_6:1156" x1="6.16592" y1="3.61902" x2="5.9313" y2="4.26206" gradientUnits="userSpaceOnUse">
<stop stop-color="#F16821"/>
<stop offset="1" stop-color="#FAB95B"/>
</linearGradient>
<linearGradient id="paint89_linear_6:1156" x1="4.24182" y1="4.75696" x2="4.0072" y2="5.4" gradientUnits="userSpaceOnUse">
<stop stop-color="#F16821"/>
<stop offset="1" stop-color="#FAB95B"/>
</linearGradient>
<linearGradient id="paint90_linear_6:1156" x1="11.9384" y1="2.44806" x2="11.7038" y2="3.0911" gradientUnits="userSpaceOnUse">
<stop stop-color="#F16821"/>
<stop offset="1" stop-color="#FAB95B"/>
</linearGradient>
<linearGradient id="paint91_linear_6:1156" x1="10.0142" y1="3.586" x2="9.7796" y2="4.22904" gradientUnits="userSpaceOnUse">
<stop stop-color="#F16821"/>
<stop offset="1" stop-color="#FAB95B"/>
</linearGradient>
<linearGradient id="paint92_linear_6:1156" x1="8.09003" y1="4.72394" x2="7.85541" y2="5.36698" gradientUnits="userSpaceOnUse">
<stop stop-color="#F16821"/>
<stop offset="1" stop-color="#FAB95B"/>
</linearGradient>
<linearGradient id="paint93_linear_6:1156" x1="11.9094" y1="0.205267" x2="11.6748" y2="0.848301" gradientUnits="userSpaceOnUse">
<stop stop-color="#F16821"/>
<stop offset="1" stop-color="#FAB95B"/>
</linearGradient>
<linearGradient id="paint94_linear_6:1156" x1="13.8335" y1="1.34315" x2="13.5989" y2="1.98618" gradientUnits="userSpaceOnUse">
<stop stop-color="#F16821"/>
<stop offset="1" stop-color="#FAB95B"/>
</linearGradient>
<linearGradient id="paint95_linear_6:1156" x1="15.7578" y1="2.48108" x2="15.5231" y2="3.12412" gradientUnits="userSpaceOnUse">
<stop stop-color="#F16821"/>
<stop offset="1" stop-color="#FAB95B"/>
</linearGradient>
<linearGradient id="paint96_linear_6:1156" x1="17.6818" y1="3.61902" x2="17.4472" y2="4.26206" gradientUnits="userSpaceOnUse">
<stop stop-color="#F16821"/>
<stop offset="1" stop-color="#FAB95B"/>
</linearGradient>
<linearGradient id="paint97_linear_6:1156" x1="19.6101" y1="4.75696" x2="19.3755" y2="5.4" gradientUnits="userSpaceOnUse">
<stop stop-color="#F16821"/>
<stop offset="1" stop-color="#FAB95B"/>
</linearGradient>
<linearGradient id="paint98_linear_6:1156" x1="11.9094" y1="2.44806" x2="11.6748" y2="3.0911" gradientUnits="userSpaceOnUse">
<stop stop-color="#F16821"/>
<stop offset="1" stop-color="#FAB95B"/>
</linearGradient>
<linearGradient id="paint99_linear_6:1156" x1="13.8335" y1="3.586" x2="13.5989" y2="4.22904" gradientUnits="userSpaceOnUse">
<stop stop-color="#F16821"/>
<stop offset="1" stop-color="#FAB95B"/>
</linearGradient>
<linearGradient id="paint100_linear_6:1156" x1="15.7578" y1="4.72394" x2="15.5231" y2="5.36698" gradientUnits="userSpaceOnUse">
<stop stop-color="#F16821"/>
<stop offset="1" stop-color="#FAB95B"/>
</linearGradient>
<linearGradient id="paint101_linear_6:1156" x1="16.4263" y1="10.416" x2="15.4543" y2="13.08" gradientUnits="userSpaceOnUse">
<stop stop-color="#F16821"/>
<stop offset="1" stop-color="#FAB95B"/>
</linearGradient>
</defs>
</svg>
