<svg width="24" height="24" viewBox="0 0 24 24" fill="none" xmlns="http://www.w3.org/2000/svg">
<path fill-rule="evenodd" clip-rule="evenodd" d="M11.8867 14.414L11.9996 14.414L12.2522 14.4149C14.1828 14.4276 18.5947 14.6226 18.5947 17.613C18.5947 20.5837 14.3366 20.7775 12.2823 20.7901L11.5212 20.7901C9.59048 20.7774 5.17769 20.5826 5.17769 17.596C5.17769 14.6215 9.59048 14.4275 11.5212 14.4149L11.7738 14.414C11.813 14.414 11.8506 14.414 11.8867 14.414ZM11.8867 15.914C9.51069 15.914 6.67769 16.206 6.67769 17.596C6.67769 18.9545 9.3416 19.2722 11.6695 19.2902L11.8867 19.291C14.2627 19.291 17.0947 19 17.0947 17.613C17.0947 16.209 14.2627 15.914 11.8867 15.914ZM19.8403 14.0082C22.2633 14.3712 22.7723 15.5092 22.7723 16.4002C22.7723 16.9442 22.5583 17.9372 21.1283 18.4822C21.0403 18.5152 20.9503 18.5312 20.8613 18.5312C20.5593 18.5312 20.2743 18.3472 20.1603 18.0482C20.0123 17.6612 20.2073 17.2272 20.5943 17.0802C21.2723 16.8222 21.2723 16.5372 21.2723 16.4002C21.2723 15.9622 20.7153 15.6562 19.6173 15.4922C19.2083 15.4302 18.9253 15.0492 18.9863 14.6382C19.0473 14.2282 19.4273 13.9552 19.8403 14.0082ZM4.78609 14.6382C4.84709 15.0492 4.56409 15.4302 4.15509 15.4922C3.05709 15.6562 2.50009 15.9622 2.50009 16.4002C2.50009 16.5372 2.50009 16.8212 3.17909 17.0802C3.56609 17.2272 3.76109 17.6612 3.61309 18.0482C3.49909 18.3472 3.21409 18.5312 2.91209 18.5312C2.82309 18.5312 2.73309 18.5152 2.64509 18.4822C1.21409 17.9362 1.00009 16.9432 1.00009 16.4002C1.00009 15.5102 1.50909 14.3712 3.93309 14.0082C4.34609 13.9562 4.72409 14.2282 4.78609 14.6382ZM11.8867 4C14.4067 4 16.4557 6.05 16.4557 8.569C16.4557 11.088 14.4067 13.138 11.8867 13.138H11.8597C10.6397 13.134 9.49669 12.656 8.64069 11.792C7.78269 10.929 7.31369 9.783 7.31865 8.566C7.31865 6.05 9.36769 4 11.8867 4ZM11.8867 5.5C10.1947 5.5 8.81867 6.877 8.81867 8.569C8.81569 9.389 9.12969 10.156 9.70469 10.735C10.2797 11.314 11.0457 11.635 11.8617 11.638L11.8867 12.388V11.638C13.5787 11.638 14.9557 10.262 14.9557 8.569C14.9557 6.877 13.5787 5.5 11.8867 5.5ZM18.0757 4.9795C19.8337 5.2685 21.1107 6.7725 21.1107 8.5555C21.1067 10.3505 19.7657 11.8905 17.9907 12.1395C17.9557 12.1445 17.9207 12.1465 17.8867 12.1465C17.5187 12.1465 17.1977 11.8755 17.1447 11.5005C17.0877 11.0895 17.3727 10.7105 17.7837 10.6535C18.8237 10.5075 19.6087 9.6055 19.6107 8.5535C19.6107 7.5105 18.8627 6.6285 17.8317 6.4595C17.4237 6.3925 17.1467 6.0065 17.2137 5.5975C17.2817 5.1885 17.6647 4.9145 18.0757 4.9795ZM6.55969 5.5975C6.62669 6.0065 6.34969 6.3925 5.94169 6.4595C4.91069 6.6285 4.16269 7.5105 4.16269 8.5555C4.16469 9.6055 4.94969 10.5085 5.98869 10.6535C6.39969 10.7105 6.68469 11.0895 6.62769 11.5005C6.57469 11.8755 6.25369 12.1465 5.88569 12.1465C5.85169 12.1465 5.81669 12.1445 5.78169 12.1395C4.00669 11.8905 2.66669 10.3505 2.66269 8.5575C2.66269 6.7725 3.93969 5.2685 5.69769 4.9795C6.11869 4.9135 6.49169 5.1905 6.55969 5.5975Z" fill="#FAFAFA"/>
</svg>
